<svg id="Layer_1" data-name="Layer 1" xmlns="http://www.w3.org/2000/svg" xmlns:xlink="http://www.w3.org/1999/xlink" viewBox="0 0 157.86 19.13"><defs><style>.cls-1{fill-rule:evenodd;}.cls-2{fill:url(#linear-gradient);}</style><linearGradient id="linear-gradient" x1="1.07" y1="25" x2="158.93" y2="25" gradientUnits="userSpaceOnUse"><stop offset="0.04" stop-color="#7a3a8e"/><stop offset="0.17" stop-color="#a24c7f"/><stop offset="0.26" stop-color="#c15d73"/><stop offset="0.39" stop-color="#d96e6a"/><stop offset="0.5" stop-color="#e98a6f"/><stop offset="0.63" stop-color="#f2a07a"/><stop offset="0.77" stop-color="#f5b38c"/><stop offset="0.88" stop-color="#f2c6a5"/><stop offset="0.98" stop-color="#ede1d2"/></linearGradient></defs><path class="cls-1" d="M16.54,15.43c2.51,0,2.55,0,2.57.08s0,5.6,0,6.09c0,9.29,0,12.85,0,12.92s-.3,0-.33,0H13.19c-.14,0-.1-.19-.1-1,0-11.69,0-11.69,0-11.72s-.34-.05-.37-.05c-5.51,0-5.54,0-5.6,0s0,10.54,0,12.57c0,.18-.19.13-.23.13-.46,0-5.66,0-5.74,0s-.06,0-.06-4.46c0-2,0-2,.1-2.16L6.79,22c.22-.21-.06-.15-.35-.15-5.31,0-5.33,0-5.35,0s0-6.25,0-6.3a47.6,47.6,0,0,1,5,0c.87,0,1,0,1,.16,0,.48,0,5.83,0,6s.32-.25.35-.28l5.45-5.77c.09-.09.11-.08,3.65-.08Z" transform="translate(-1.07 -15.43)"/><polygon points="32.63 9.33 39.79 19.13 32.7 19.13 29.17 13.97 25.62 19.13 18.53 19.13 25.69 9.33 18.77 0 25.86 0 29.17 4.74 32.46 0 39.55 0 32.63 9.33 32.63 9.33"/><path d="M47.22,29.74q9.31,0,13.51-.29a11,11,0,0,0-.22,2.23v2.89H41.43q.2-5.12.19-9.57t-.19-9.57h19V20.2H47.22v2.53q1.17,0,3.48,0,3.9,0,8.07-.16v4.53Q54.6,27,50.7,27l-3.48,0v2.74Z" transform="translate(-1.07 -15.43)"/><path d="M67.94,29.24q7.11,0,11.77-.26a15.53,15.53,0,0,0-.39,2.58c0,.83-.07,1.83-.07,3H62q.2-5.12.19-9.57T62,15.43h6V29.24Z" transform="translate(-1.07 -15.43)"/><path d="M86.43,29.24q7.11,0,11.78-.26a14.61,14.61,0,0,0-.4,2.58c0,.83-.07,1.83-.07,3H80.45q.19-5.12.19-9.57t-.19-9.57h6V29.24Z" transform="translate(-1.07 -15.43)"/><path d="M105,29.74q9.31,0,13.51-.29a11,11,0,0,0-.22,2.23v2.89H99.19q.19-5.12.19-9.57t-.19-9.57h19V20.2H105v2.53q1.17,0,3.48,0,3.9,0,8.07-.16v4.53q-4.17-.15-8.07-.15L105,27v2.74Z" transform="translate(-1.07 -15.43)"/><path class="cls-1" d="M134.4,15.43c2.49,0,2.53,0,2.55.08s0,5.6,0,6.09c0,9.29,0,12.85,0,12.92s-.31,0-.34,0h-5.52c-.13,0-.1-.19-.1-1V21.88c0-.05-.34-.05-.37-.05-5.46,0-5.48,0-5.54,0s0,10.54,0,12.57c0,.18-.18.13-.22.13-.46,0-5.62,0-5.7,0s0,0,0-4.46c0-2,0-2,.1-2.16L124.74,22c.22-.21,0-.15-.35-.15-5.26,0-5.27,0-5.3,0s0-6.25,0-6.3a47.42,47.42,0,0,1,5,0c.86,0,1,0,1,.16,0,.48,0,5.83,0,6s.32-.25.35-.28c1.31-1.39,5.38-5.75,5.39-5.77s.11-.08,3.62-.08Z" transform="translate(-1.07 -15.43)"/><path d="M158.93,21q-3.85-.13-7.48-.16V34.57h-6.13V20.81c-2.44,0-4.92.07-7.46.16V15.43h21.07V21Z" transform="translate(-1.07 -15.43)"/><path class="cls-2" d="M16.54,15.43c2.51,0,2.55,0,2.57.08s0,5.6,0,6.09c0,9.29,0,12.85,0,12.92s-.3,0-.33,0H13.19c-.14,0-.1-.19-.1-1,0-11.69,0-11.69,0-11.72s-.34-.05-.37-.05c-5.51,0-5.54,0-5.6,0s0,10.54,0,12.57c0,.18-.19.13-.23.13-.46,0-5.66,0-5.74,0s-.06,0-.06-4.46c0-2,0-2,.1-2.16L6.79,22c.22-.21-.06-.15-.35-.15-5.31,0-5.33,0-5.35,0s0-6.25,0-6.3a47.6,47.6,0,0,1,5,0c.87,0,1,0,1,.16,0,.48,0,5.83,0,6s.32-.25.35-.28l5.45-5.77c.09-.09.11-.08,3.65-.08Z" transform="translate(-1.07 -15.43)"/><polygon class="cls-2" points="32.63 9.33 39.79 19.13 32.7 19.13 29.17 13.97 25.62 19.13 18.53 19.13 25.69 9.33 18.77 0 25.86 0 29.17 4.74 32.46 0 39.55 0 32.63 9.33 32.63 9.33"/><path class="cls-2" d="M47.22,29.74q9.31,0,13.51-.29a11,11,0,0,0-.22,2.23v2.89H41.43q.2-5.12.19-9.57t-.19-9.57h19V20.2H47.22v2.53q1.17,0,3.48,0,3.9,0,8.07-.16v4.53Q54.6,27,50.7,27l-3.48,0v2.74Z" transform="translate(-1.07 -15.43)"/><path class="cls-2" d="M67.94,29.24q7.11,0,11.77-.26a15.53,15.53,0,0,0-.39,2.58c0,.83-.07,1.83-.07,3H62q.2-5.12.19-9.57T62,15.43h6V29.24Z" transform="translate(-1.07 -15.43)"/><path class="cls-2" d="M86.43,29.24q7.11,0,11.78-.26a14.61,14.61,0,0,0-.4,2.58c0,.83-.07,1.83-.07,3H80.45q.19-5.12.19-9.57t-.19-9.57h6V29.24Z" transform="translate(-1.07 -15.43)"/><path class="cls-2" d="M105,29.74q9.31,0,13.51-.29a11,11,0,0,0-.22,2.23v2.89H99.19q.19-5.12.19-9.57t-.19-9.57h19V20.2H105v2.53q1.17,0,3.48,0,3.9,0,8.07-.16v4.53q-4.17-.15-8.07-.15L105,27v2.74Z" transform="translate(-1.07 -15.43)"/><path class="cls-2" d="M134.4,15.43c2.49,0,2.53,0,2.55.08s0,5.6,0,6.09c0,9.29,0,12.85,0,12.92s-.31,0-.34,0h-5.52c-.13,0-.1-.19-.1-1V21.88c0-.05-.34-.05-.37-.05-5.46,0-5.48,0-5.54,0s0,10.54,0,12.57c0,.18-.18.13-.22.13-.46,0-5.62,0-5.7,0s0,0,0-4.46c0-2,0-2,.1-2.16L124.74,22c.22-.21,0-.15-.35-.15-5.26,0-5.27,0-5.3,0s0-6.25,0-6.3a47.42,47.42,0,0,1,5,0c.86,0,1,0,1,.16,0,.48,0,5.83,0,6s.32-.25.35-.28c1.31-1.39,5.38-5.75,5.39-5.77s.11-.08,3.62-.08Z" transform="translate(-1.07 -15.43)"/><path class="cls-2" d="M158.93,21q-3.85-.13-7.48-.16V34.57h-6.13V20.81c-2.44,0-4.92.07-7.46.16V15.43h21.07V21Z" transform="translate(-1.07 -15.43)"/></svg>