<svg id="Layer_1" data-name="Layer 1" xmlns="http://www.w3.org/2000/svg" xmlns:xlink="http://www.w3.org/1999/xlink" viewBox="0 0 16 16"><defs><style>.cls-1{fill:url(#linear-gradient);}.cls-2{fill-rule:evenodd;}.cls-3{fill:url(#linear-gradient-2);}</style><linearGradient id="linear-gradient" y1="8" x2="16" y2="8" gradientUnits="userSpaceOnUse"><stop offset="0" stop-color="#031733"/><stop offset="1" stop-color="#041c3a"/></linearGradient><linearGradient id="linear-gradient-2" x1="2.63" y1="7.87" x2="13.37" y2="7.87" gradientTransform="translate(0 0.13)" gradientUnits="userSpaceOnUse"><stop offset="0.04" stop-color="#7a3a8e"/><stop offset="0.17" stop-color="#a24c7f"/><stop offset="0.26" stop-color="#c15d73"/><stop offset="0.39" stop-color="#d96e6a"/><stop offset="0.5" stop-color="#e98a6f"/><stop offset="0.63" stop-color="#f2a07a"/><stop offset="0.77" stop-color="#f5b38c"/><stop offset="0.88" stop-color="#f2c6a5"/><stop offset="0.98" stop-color="#ede1d2"/></linearGradient></defs><rect class="cls-1" width="16" height="16"/><path class="cls-2" d="M6.8,5.42c.68,0,.69,0,.7,0V7.08c0,2.51,0,3.47,0,3.49H5.9s0-.05,0-.26V7.16s-.09,0-.1,0a11.75,11.75,0,0,0-1.51,0s0,2.85,0,3.4c0,0,0,0-.06,0H2.64a7.19,7.19,0,0,1,0-1.2c0-.55,0-.56,0-.59s1.52-1.6,1.52-1.61,0,0-.09,0H2.63s0-1.69,0-1.7H4c.24,0,.26,0,.26,0V7.07S4.34,7,4.35,7c.35-.38,1.46-1.56,1.47-1.56s0,0,1,0Z" transform="translate(0 0)"/><polygon points="11.44 7.94 13.37 10.58 11.46 10.58 10.51 9.19 9.54 10.58 7.63 10.58 9.56 7.94 7.7 5.42 9.61 5.42 10.51 6.7 11.39 5.42 13.31 5.42 11.44 7.94 11.44 7.94"/><path class="cls-3" d="M6.8,5.42c.68,0,.69,0,.7,0V7.08c0,2.51,0,3.47,0,3.49H5.9s0-.05,0-.26V7.16s-.09,0-.1,0a11.75,11.75,0,0,0-1.51,0s0,2.85,0,3.4c0,0,0,0-.06,0H2.64a7.19,7.19,0,0,1,0-1.2c0-.55,0-.56,0-.59s1.52-1.6,1.52-1.61,0,0-.09,0H2.63s0-1.69,0-1.7H4c.24,0,.26,0,.26,0V7.07S4.34,7,4.35,7c.35-.38,1.46-1.56,1.47-1.56s0,0,1,0Z" transform="translate(0 0)"/><polygon class="cls-3" points="11.44 7.94 13.37 10.58 11.46 10.58 10.51 9.19 9.54 10.58 7.63 10.58 9.56 7.94 7.7 5.42 9.61 5.42 10.51 6.7 11.39 5.42 13.31 5.42 11.44 7.94 11.44 7.94"/></svg>