<svg id="Layer_1" data-name="Layer 1" xmlns="http://www.w3.org/2000/svg" xmlns:xlink="http://www.w3.org/1999/xlink" viewBox="0 0 48 48"><defs><style>.cls-1{fill:url(#linear-gradient);}.cls-2{fill-rule:evenodd;}.cls-3{fill:url(#linear-gradient-2);}</style><linearGradient id="linear-gradient" y1="24" x2="48" y2="24" gradientUnits="userSpaceOnUse"><stop offset="0" stop-color="#031733"/><stop offset="1" stop-color="#041c3a"/></linearGradient><linearGradient id="linear-gradient-2" x1="7.88" y1="24" x2="40.12" y2="24" gradientUnits="userSpaceOnUse"><stop offset="0" stop-color="#7a3a8e"/><stop offset="0.11" stop-color="#a24c7f"/><stop offset="0.23" stop-color="#c15d73"/><stop offset="0.35" stop-color="#d96e6a"/><stop offset="0.5" stop-color="#e98a6f"/><stop offset="0.63" stop-color="#f2a07a"/><stop offset="0.77" stop-color="#f5b38c"/><stop offset="0.88" stop-color="#f2c6a5"/><stop offset="1" stop-color="#ede1d2"/></linearGradient></defs><rect class="cls-1" width="48" height="48"/><path class="cls-2" d="M20.41,16.25c2,0,2.07,0,2.08.06s0,4.54,0,4.94c0,7.52,0,10.4,0,10.46s-.25,0-.27,0c-.36,0-4.27,0-4.51,0s-.09-.16-.09-.78c0-9.47,0-9.47,0-9.49s-.28-.05-.3-.05c-4.47,0-4.49,0-4.53,0s0,8.54,0,10.18c0,.14-.15.11-.18.11-.37,0-4.59,0-4.65,0s0,0,0-3.61c0-1.64,0-1.66.08-1.76l4.55-4.82c.18-.17,0-.12-.28-.12a35.62,35.62,0,0,1-4.34,0s0-5.07,0-5.11,0,0,4.08,0c.7,0,.78,0,.78.12,0,.39,0,4.73,0,4.83S13,21,13,21l4.41-4.68c.07-.07.09-.06,3-.06Z" transform="translate(0 0)"/><polygon points="34.32 23.81 40.12 31.75 34.38 31.75 31.52 27.57 28.64 31.75 22.89 31.75 28.7 23.81 23.09 16.25 28.83 16.25 31.52 20.09 34.18 16.25 39.92 16.25 34.32 23.81 34.32 23.81"/><path class="cls-3" d="M20.41,16.25c2,0,2.07,0,2.08.06s0,4.54,0,4.94c0,7.52,0,10.4,0,10.46s-.25,0-.27,0c-.36,0-4.27,0-4.51,0s-.09-.16-.09-.78c0-9.47,0-9.47,0-9.49s-.28-.05-.3-.05c-4.47,0-4.49,0-4.53,0s0,8.54,0,10.18c0,.14-.15.11-.18.11-.37,0-4.59,0-4.65,0s0,0,0-3.61c0-1.64,0-1.66.08-1.76l4.55-4.82c.18-.17,0-.12-.28-.12a35.62,35.62,0,0,1-4.34,0s0-5.07,0-5.11,0,0,4.08,0c.7,0,.78,0,.78.12,0,.39,0,4.73,0,4.83S13,21,13,21l4.41-4.68c.07-.07.09-.06,3-.06Z" transform="translate(0 0)"/><polygon class="cls-3" points="34.32 23.81 40.12 31.75 34.38 31.75 31.52 27.57 28.64 31.75 22.89 31.75 28.7 23.81 23.09 16.25 28.83 16.25 31.52 20.09 34.18 16.25 39.92 16.25 34.32 23.81 34.32 23.81"/></svg>