<svg id="Layer_1" data-name="Layer 1" xmlns="http://www.w3.org/2000/svg" xmlns:xlink="http://www.w3.org/1999/xlink" viewBox="0 0 32 32"><defs><style>.cls-1{fill:url(#linear-gradient);}.cls-2{fill-rule:evenodd;}.cls-3{fill:url(#linear-gradient-2);}</style><linearGradient id="linear-gradient" y1="16" x2="32" y2="16" gradientUnits="userSpaceOnUse"><stop offset="0" stop-color="#031733"/><stop offset="1" stop-color="#041c3a"/></linearGradient><linearGradient id="linear-gradient-2" x1="5.25" y1="16.27" x2="26.75" y2="16.27" gradientTransform="translate(0 -0.27)" gradientUnits="userSpaceOnUse"><stop offset="0.04" stop-color="#7a3a8e"/><stop offset="0.17" stop-color="#a24c7f"/><stop offset="0.26" stop-color="#c15d73"/><stop offset="0.39" stop-color="#d96e6a"/><stop offset="0.5" stop-color="#e98a6f"/><stop offset="0.63" stop-color="#f2a07a"/><stop offset="0.77" stop-color="#f5b38c"/><stop offset="0.88" stop-color="#f2c6a5"/><stop offset="0.98" stop-color="#ede1d2"/></linearGradient></defs><rect class="cls-1" width="32" height="32"/><path class="cls-2" d="M13.61,10.83c1.35,0,1.38,0,1.39,0s0,3,0,3.29c0,5,0,6.94,0,7s-.17,0-.18,0c-.24,0-2.85,0-3,0s-.06-.1-.06-.51V14.32s-.19,0-.2,0a23.7,23.7,0,0,0-3,0s0,5.69,0,6.79c0,.09-.1.06-.12.06-.25,0-3.07,0-3.11,0a14.89,14.89,0,0,1,0-2.41c0-1.09,0-1.1.06-1.17s3-3.21,3-3.21,0-.08-.19-.08a21,21,0,0,1-2.89,0s0-3.38,0-3.41H8c.46,0,.52,0,.52.08,0,.26,0,3.15,0,3.22s.18-.13.19-.15c.72-.75,2.94-3.11,2.94-3.11s.06-.05,2-.05Z" transform="translate(0 0)"/><polygon points="22.88 15.87 26.75 21.17 22.92 21.17 21.01 18.38 19.09 21.17 15.26 21.17 19.13 15.87 15.39 10.83 19.22 10.83 21.01 13.39 22.79 10.83 26.62 10.83 22.88 15.87 22.88 15.87"/><path class="cls-3" d="M13.61,10.83c1.35,0,1.38,0,1.39,0s0,3,0,3.29c0,5,0,6.94,0,7s-.17,0-.18,0c-.24,0-2.85,0-3,0s-.06-.1-.06-.51V14.32s-.19,0-.2,0a23.7,23.7,0,0,0-3,0s0,5.69,0,6.79c0,.09-.1.06-.12.06-.25,0-3.07,0-3.11,0a14.89,14.89,0,0,1,0-2.41c0-1.09,0-1.1.06-1.17s3-3.21,3-3.21,0-.08-.19-.08a21,21,0,0,1-2.89,0s0-3.38,0-3.41H8c.46,0,.52,0,.52.08,0,.26,0,3.15,0,3.22s.18-.13.19-.15c.72-.75,2.94-3.11,2.94-3.11s.06-.05,2-.05Z" transform="translate(0 0)"/><polygon class="cls-3" points="22.88 15.87 26.75 21.17 22.92 21.17 21.01 18.38 19.09 21.17 15.26 21.17 19.13 15.87 15.39 10.83 19.22 10.83 21.01 13.39 22.79 10.83 26.62 10.83 22.88 15.87 22.88 15.87"/></svg>