<svg width="54" height="54" viewBox="0 0 54 54" fill="none" xmlns="http://www.w3.org/2000/svg">
<path d="M49.0509 22.4999C50.0785 27.5428 49.3461 32.7856 46.9761 37.3539C44.606 41.9222 40.7414 45.54 36.0268 47.6038C31.3122 49.6677 26.0325 50.0529 21.0683 48.6952C16.1041 47.3375 11.7553 44.319 8.74726 40.1431C5.7392 35.9671 4.25366 30.8861 4.53838 25.7475C4.8231 20.6088 6.86087 15.7231 10.3119 11.905C13.7628 8.08692 18.4184 5.56732 23.5023 4.76637C28.5861 3.96543 33.7909 4.93154 38.2486 7.5036" stroke="url(#paint0_linear_367_2705)" stroke-width="4.5" stroke-linecap="round" stroke-linejoin="round"/>
<path d="M20.25 24.7518L27 31.5018L49.5 9.00177" stroke="url(#paint1_linear_367_2705)" stroke-width="4.5" stroke-linecap="round" stroke-linejoin="round"/>
<defs>
<linearGradient id="paint0_linear_367_2705" x1="4.50391" y1="38.2422" x2="60.0318" y2="35.8722" gradientUnits="userSpaceOnUse">
<stop stop-color="#BE0178"/>
<stop offset="1" stop-color="#E830E8"/>
</linearGradient>
<linearGradient id="paint1_linear_367_2705" x1="20.25" y1="25.8768" x2="56.2979" y2="23.8766" gradientUnits="userSpaceOnUse">
<stop stop-color="#BE0178"/>
<stop offset="1" stop-color="#E830E8"/>
</linearGradient>
</defs>
</svg>
