<svg width="1286" height="214" viewBox="0 0 1286 214" fill="none" xmlns="http://www.w3.org/2000/svg">
<g filter="url(#filter0_d_292_10658)">
<mask id="path-1-inside-1_292_10658" fill="white">
<path d="M40 56C40 47.1635 47.1634 40 56 40H1230C1238.84 40 1246 47.1634 1246 56V157.946C1246 166.783 1238.84 173.946 1230 173.946H56C47.1634 173.946 40 166.783 40 157.946V56Z"/>
</mask>
<path d="M40 56C40 47.1635 47.1634 40 56 40H1230C1238.84 40 1246 47.1634 1246 56V157.946C1246 166.783 1238.84 173.946 1230 173.946H56C47.1634 173.946 40 166.783 40 157.946V56Z" fill="#000124" shape-rendering="crispEdges"/>
<path d="M56 40V41H1230V40V39H56V40ZM1246 56H1245V157.946H1246H1247V56H1246ZM1230 173.946V172.946H56V173.946V174.946H1230V173.946ZM40 157.946H41V56H40H39V157.946H40ZM56 173.946V172.946C47.7157 172.946 41 166.23 41 157.946H40H39C39 167.335 46.6111 174.946 56 174.946V173.946ZM1246 157.946H1245C1245 166.23 1238.28 172.946 1230 172.946V173.946V174.946C1239.39 174.946 1247 167.335 1247 157.946H1246ZM1230 40V41C1238.28 41 1245 47.7157 1245 56H1246H1247C1247 46.6112 1239.39 39 1230 39V40ZM56 40V39C46.6112 39 39 46.6112 39 56H40H41C41 47.7157 47.7157 41 56 41V40Z" fill="#A855F7" fill-opacity="0.2" mask="url(#path-1-inside-1_292_10658)"/>
<path d="M40 56C40 47.1635 47.1634 40 56 40H1230C1238.84 40 1246 47.1634 1246 56V157.946C1246 166.783 1238.84 173.946 1230 173.946H56C47.1634 173.946 40 166.783 40 157.946V56Z" fill="url(#paint0_linear_292_10658)" fill-opacity="0.5"/>
<mask id="path-4-inside-2_292_10658" fill="white">
<path d="M68 68H334.645V145.946H68V68Z"/>
</mask>
<path d="M334.645 68H333.563V145.946H334.645H335.728V68H334.645Z" fill="#314158" fill-opacity="0.5" mask="url(#path-4-inside-2_292_10658)"/>
<g filter="url(#filter1_d_292_10658)">
<path d="M97.9834 98.8537V113.288C97.9834 113.767 98.2643 114.226 98.7644 114.564C99.2645 114.902 99.9428 115.092 100.65 115.092H121.983" stroke="#EC4899" stroke-width="1.80431" stroke-linecap="round" stroke-linejoin="round"/>
<path d="M117.982 111.484V104.267" stroke="#EC4899" stroke-width="1.80431" stroke-linecap="round" stroke-linejoin="round"/>
<path d="M111.316 111.484V100.658" stroke="#EC4899" stroke-width="1.80431" stroke-linecap="round" stroke-linejoin="round"/>
<path d="M104.649 111.484V108.777" stroke="#EC4899" stroke-width="1.80431" stroke-linecap="round" stroke-linejoin="round"/>
</g>
<path opacity="0.8" d="M148.244 92.4731H146.38L150.568 80.8367H152.596L156.784 92.4731H154.92L151.63 82.9503H151.539L148.244 92.4731ZM148.556 87.9162H154.602V89.3935H148.556V87.9162ZM164.7 83.7458L161.535 92.4731H159.717L156.546 83.7458H158.37L160.58 90.4617H160.671L162.876 83.7458H164.7ZM169.659 95.9276C168.965 95.9276 168.369 95.8367 167.869 95.6549C167.373 95.4731 166.967 95.2325 166.653 94.9333C166.338 94.6341 166.104 94.3064 165.948 93.9503L167.409 93.3481C167.511 93.5147 167.647 93.6909 167.818 93.8765C167.992 94.0659 168.227 94.2269 168.522 94.3594C168.821 94.492 169.206 94.5583 169.676 94.5583C170.32 94.5583 170.852 94.4011 171.272 94.0867C171.693 93.7761 171.903 93.2799 171.903 92.5981V90.8822H171.795C171.693 91.0678 171.545 91.2742 171.352 91.5015C171.162 91.7288 170.901 91.9257 170.568 92.0924C170.234 92.2591 169.801 92.3424 169.267 92.3424C168.577 92.3424 167.956 92.1814 167.403 91.8594C166.854 91.5337 166.418 91.0545 166.096 90.4219C165.778 89.7856 165.619 89.0034 165.619 88.0753C165.619 87.1473 165.776 86.3519 166.09 85.689C166.409 85.0261 166.844 84.5185 167.397 84.1663C167.95 83.8102 168.577 83.6322 169.278 83.6322C169.82 83.6322 170.257 83.7231 170.59 83.9049C170.924 84.0829 171.183 84.2912 171.369 84.5299C171.558 84.7685 171.704 84.9787 171.806 85.1606H171.931V83.7458H173.596V92.6663C173.596 93.4163 173.422 94.0318 173.073 94.5128C172.725 94.9939 172.253 95.35 171.659 95.581C171.068 95.8121 170.401 95.9276 169.659 95.9276ZM169.642 90.9333C170.13 90.9333 170.543 90.8197 170.88 90.5924C171.221 90.3613 171.479 90.0318 171.653 89.6037C171.831 89.1719 171.92 88.6549 171.92 88.0526C171.92 87.4655 171.833 86.9484 171.659 86.5015C171.484 86.0545 171.229 85.706 170.892 85.456C170.554 85.2022 170.138 85.0753 169.642 85.0753C169.13 85.0753 168.704 85.2079 168.363 85.4731C168.022 85.7344 167.765 86.0905 167.59 86.5412C167.42 86.992 167.335 87.4958 167.335 88.0526C167.335 88.6246 167.422 89.1265 167.596 89.5583C167.77 89.9901 168.028 90.3272 168.369 90.5697C168.713 90.8121 169.138 90.9333 169.642 90.9333ZM186.592 83.8935C186.531 83.3556 186.281 82.939 185.842 82.6435C185.402 82.3443 184.849 82.1947 184.183 82.1947C183.705 82.1947 183.293 82.2704 182.944 82.4219C182.596 82.5697 182.325 82.7742 182.132 83.0356C181.942 83.2931 181.847 83.5867 181.847 83.9163C181.847 84.1928 181.912 84.4314 182.041 84.6322C182.173 84.8329 182.346 85.0015 182.558 85.1378C182.774 85.2704 183.005 85.3822 183.251 85.4731C183.497 85.5602 183.734 85.6322 183.961 85.689L185.097 85.9844C185.469 86.0753 185.849 86.1984 186.24 86.3537C186.63 86.5091 186.991 86.7136 187.325 86.9674C187.658 87.2212 187.927 87.5356 188.132 87.9106C188.34 88.2856 188.444 88.7344 188.444 89.2572C188.444 89.9162 188.274 90.5015 187.933 91.0128C187.596 91.5242 187.105 91.9276 186.461 92.2231C185.821 92.5185 185.046 92.6663 184.137 92.6663C183.266 92.6663 182.512 92.528 181.876 92.2515C181.24 91.975 180.741 91.5829 180.382 91.0753C180.022 90.564 179.823 89.9579 179.785 89.2572H181.546C181.58 89.6776 181.717 90.028 181.955 90.3083C182.198 90.5848 182.507 90.7913 182.882 90.9276C183.26 91.0602 183.675 91.1265 184.126 91.1265C184.622 91.1265 185.063 91.0488 185.45 90.8935C185.84 90.7344 186.147 90.5147 186.37 90.2344C186.594 89.9503 186.705 89.6189 186.705 89.2401C186.705 88.8954 186.607 88.6132 186.41 88.3935C186.217 88.1738 185.954 87.992 185.62 87.8481C185.291 87.7041 184.918 87.5772 184.501 87.4674L183.126 87.0924C182.194 86.8386 181.455 86.4655 180.91 85.9731C180.368 85.4806 180.097 84.8291 180.097 84.0185C180.097 83.3481 180.279 82.7628 180.643 82.2628C181.007 81.7628 181.499 81.3746 182.12 81.0981C182.741 80.8178 183.442 80.6776 184.222 80.6776C185.01 80.6776 185.705 80.8159 186.308 81.0924C186.914 81.3689 187.391 81.7496 187.74 82.2344C188.088 82.7155 188.27 83.2685 188.285 83.8935H186.592ZM194.082 92.6492C193.237 92.6492 192.51 92.4579 191.9 92.0753C191.294 91.689 190.828 91.1568 190.502 90.4787C190.177 89.8007 190.014 89.0242 190.014 88.1492C190.014 87.2628 190.18 86.4806 190.514 85.8026C190.847 85.1208 191.317 84.5886 191.923 84.206C192.529 83.8234 193.243 83.6322 194.065 83.6322C194.728 83.6322 195.319 83.7553 195.838 84.0015C196.356 84.2439 196.775 84.5848 197.093 85.0242C197.415 85.4636 197.606 85.9769 197.667 86.564H196.014C195.923 86.1549 195.714 85.8026 195.389 85.5072C195.067 85.2117 194.635 85.064 194.093 85.064C193.62 85.064 193.205 85.189 192.849 85.439C192.497 85.6852 192.222 86.0375 192.025 86.4958C191.828 86.9503 191.73 87.4882 191.73 88.1094C191.73 88.7458 191.826 89.295 192.019 89.7572C192.213 90.2193 192.485 90.5772 192.838 90.831C193.194 91.0848 193.612 91.2117 194.093 91.2117C194.415 91.2117 194.707 91.153 194.968 91.0356C195.233 90.9144 195.455 90.742 195.633 90.5185C195.815 90.295 195.942 90.0261 196.014 89.7117H197.667C197.606 90.2761 197.423 90.7799 197.116 91.2231C196.809 91.6663 196.398 92.0147 195.883 92.2685C195.372 92.5223 194.771 92.6492 194.082 92.6492ZM203.16 92.6492C202.342 92.6492 201.628 92.4617 201.018 92.0867C200.408 91.7117 199.935 91.1871 199.597 90.5128C199.26 89.8386 199.092 89.0507 199.092 88.1492C199.092 87.2439 199.26 86.4522 199.597 85.7742C199.935 85.0962 200.408 84.5697 201.018 84.1947C201.628 83.8197 202.342 83.6322 203.16 83.6322C203.978 83.6322 204.692 83.8197 205.302 84.1947C205.912 84.5697 206.385 85.0962 206.722 85.7742C207.06 86.4522 207.228 87.2439 207.228 88.1492C207.228 89.0507 207.06 89.8386 206.722 90.5128C206.385 91.1871 205.912 91.7117 205.302 92.0867C204.692 92.4617 203.978 92.6492 203.16 92.6492ZM203.166 91.2231C203.696 91.2231 204.135 91.0829 204.484 90.8026C204.832 90.5223 205.09 90.1492 205.257 89.6833C205.427 89.2174 205.512 88.7041 205.512 88.1435C205.512 87.5867 205.427 87.0753 205.257 86.6094C205.09 86.1397 204.832 85.7628 204.484 85.4787C204.135 85.1947 203.696 85.0526 203.166 85.0526C202.632 85.0526 202.188 85.1947 201.836 85.4787C201.488 85.7628 201.228 86.1397 201.058 86.6094C200.891 87.0753 200.808 87.5867 200.808 88.1435C200.808 88.7041 200.891 89.2174 201.058 89.6833C201.228 90.1492 201.488 90.5223 201.836 90.8026C202.188 91.0829 202.632 91.2231 203.166 91.2231ZM209.124 92.4731V83.7458H210.767V85.1322H210.857C211.017 84.6625 211.297 84.2931 211.698 84.0242C212.104 83.7515 212.562 83.6151 213.073 83.6151C213.179 83.6151 213.304 83.6189 213.448 83.6265C213.596 83.6341 213.712 83.6435 213.795 83.6549V85.2799C213.727 85.2609 213.606 85.2401 213.431 85.2174C213.257 85.1909 213.083 85.1776 212.909 85.1776C212.507 85.1776 212.149 85.2628 211.835 85.4333C211.524 85.6 211.278 85.8329 211.096 86.1322C210.914 86.4276 210.823 86.7647 210.823 87.1435V92.4731H209.124ZM218.714 92.6492C217.854 92.6492 217.114 92.4655 216.492 92.0981C215.875 91.7269 215.398 91.206 215.061 90.5356C214.727 89.8613 214.561 89.0716 214.561 88.1662C214.561 87.2723 214.727 86.4844 215.061 85.8026C215.398 85.1208 215.867 84.5886 216.47 84.206C217.076 83.8234 217.784 83.6322 218.595 83.6322C219.087 83.6322 219.564 83.7136 220.026 83.8765C220.489 84.0394 220.903 84.295 221.271 84.6435C221.638 84.992 221.928 85.4447 222.14 86.0015C222.352 86.5545 222.458 87.2269 222.458 88.0185V88.6208H215.521V87.3481H220.794C220.794 86.9011 220.703 86.5053 220.521 86.1606C220.339 85.8121 220.083 85.5375 219.754 85.3367C219.428 85.1359 219.045 85.0356 218.606 85.0356C218.129 85.0356 217.712 85.153 217.356 85.3878C217.004 85.6189 216.731 85.9219 216.538 86.2969C216.348 86.6681 216.254 87.0716 216.254 87.5072V88.5015C216.254 89.0848 216.356 89.581 216.561 89.9901C216.769 90.3992 217.059 90.7117 217.43 90.9276C217.801 91.1397 218.235 91.2458 218.731 91.2458C219.053 91.2458 219.347 91.2003 219.612 91.1094C219.877 91.0147 220.106 90.8746 220.299 90.689C220.492 90.5034 220.64 90.2742 220.742 90.0015L222.35 90.2912C222.222 90.7647 221.99 91.1795 221.657 91.5356C221.328 91.8878 220.913 92.1625 220.413 92.3594C219.917 92.5526 219.35 92.6492 218.714 92.6492Z" fill="white"/>
<path d="M154.07 128.86C152.782 128.86 151.612 128.547 150.562 127.923C149.512 127.299 148.679 126.466 148.065 125.426C147.46 124.375 147.158 123.221 147.158 121.962H149.655C149.655 122.765 149.853 123.503 150.25 124.177C150.646 124.841 151.176 125.371 151.84 125.768C152.514 126.164 153.258 126.362 154.07 126.362C154.873 126.362 155.606 126.164 156.27 125.768C156.934 125.371 157.464 124.841 157.861 124.177C158.257 123.503 158.455 122.765 158.455 121.962C158.455 121.16 158.267 120.421 157.89 119.747C157.524 119.074 156.984 118.538 156.27 118.142C155.557 117.736 154.69 117.533 153.669 117.533H148.54L150.562 107.662H160.432V110.16H152.584L151.617 115.035L153.773 115.05C155.19 115.08 156.434 115.397 157.504 116.001C158.584 116.596 159.426 117.409 160.031 118.439C160.645 119.46 160.953 120.634 160.953 121.962C160.953 122.904 160.774 123.796 160.417 124.638C160.061 125.47 159.565 126.204 158.931 126.838C158.297 127.472 157.563 127.968 156.731 128.324C155.908 128.681 155.022 128.86 154.07 128.86ZM165.266 128.86C164.89 128.86 164.568 128.726 164.3 128.458C164.042 128.191 163.913 127.864 163.913 127.477C163.913 127.11 164.042 126.793 164.3 126.526C164.568 126.258 164.89 126.124 165.266 126.124C165.653 126.124 165.98 126.258 166.247 126.526C166.515 126.793 166.649 127.11 166.649 127.477C166.649 127.864 166.515 128.191 166.247 128.458C165.98 128.726 165.653 128.86 165.266 128.86ZM169.633 128.473V126.258C170.396 125.574 171.253 124.811 172.205 123.969C173.156 123.117 174.102 122.23 175.044 121.308C175.995 120.377 176.867 119.455 177.66 118.543C178.453 117.632 179.092 116.769 179.578 115.957C180.063 115.134 180.306 114.416 180.306 113.801C180.306 113.068 180.128 112.399 179.771 111.795C179.414 111.18 178.933 110.69 178.329 110.323C177.734 109.956 177.07 109.773 176.337 109.773C175.604 109.773 174.93 109.956 174.315 110.323C173.711 110.69 173.225 111.18 172.859 111.795C172.502 112.399 172.324 113.068 172.324 113.801H169.826C169.826 112.583 170.124 111.483 170.718 110.501C171.313 109.51 172.101 108.728 173.082 108.153C174.063 107.568 175.148 107.276 176.337 107.276C177.526 107.276 178.606 107.568 179.578 108.153C180.559 108.737 181.342 109.525 181.926 110.516C182.511 111.497 182.803 112.592 182.803 113.801C182.803 114.495 182.635 115.243 182.298 116.046C181.961 116.839 181.5 117.656 180.915 118.499C180.331 119.341 179.667 120.193 178.924 121.056C178.18 121.908 177.397 122.75 176.575 123.583C175.752 124.415 174.935 125.213 174.122 125.976H183.071V128.473H169.633Z" fill="white"/>
<mask id="path-12-inside-3_292_10658" fill="white">
<path d="M344.646 68H611.291V145.946H344.646V68Z"/>
</mask>
<path d="M611.291 68H610.208V145.946H611.291H612.373V68H611.291Z" fill="#314158" fill-opacity="0.5" mask="url(#path-12-inside-3_292_10658)"/>
<g filter="url(#filter2_d_292_10658)">
<path d="M391.264 108.16L393.284 119.528C393.306 119.662 393.287 119.799 393.23 119.922C393.172 120.045 393.078 120.147 392.961 120.216C392.843 120.284 392.708 120.314 392.573 120.303C392.437 120.292 392.309 120.241 392.204 120.154L387.43 116.572C387.2 116.4 386.92 116.307 386.632 116.307C386.345 116.307 386.065 116.4 385.834 116.572L381.053 120.153C380.948 120.239 380.819 120.291 380.684 120.302C380.549 120.313 380.414 120.282 380.296 120.214C380.179 120.146 380.085 120.044 380.027 119.922C379.97 119.799 379.951 119.662 379.973 119.528L381.992 108.16" stroke="#EC4899" stroke-width="1.80431" stroke-linecap="round" stroke-linejoin="round"/>
<path d="M386.628 109.64C391.046 109.64 394.628 106.058 394.628 101.64C394.628 97.2215 391.046 93.6398 386.628 93.6398C382.21 93.6398 378.628 97.2215 378.628 101.64C378.628 106.058 382.21 109.64 386.628 109.64Z" stroke="#EC4899" stroke-width="1.80431" stroke-linecap="round" stroke-linejoin="round"/>
</g>
<path opacity="0.8" d="M429.821 90.2912V89.6776C429.821 89.2382 429.912 88.8367 430.094 88.4731C430.279 88.1056 430.548 87.8121 430.901 87.5924C431.257 87.3689 431.687 87.2572 432.19 87.2572C432.706 87.2572 433.137 87.367 433.486 87.5867C433.834 87.8064 434.098 88.1 434.276 88.4674C434.457 88.8348 434.548 89.2382 434.548 89.6776V90.2912C434.548 90.7306 434.457 91.1341 434.276 91.5015C434.094 91.8651 433.827 92.1587 433.475 92.3822C433.126 92.6019 432.698 92.7117 432.19 92.7117C431.679 92.7117 431.247 92.6019 430.895 92.3822C430.543 92.1587 430.276 91.8651 430.094 91.5015C429.912 91.1341 429.821 90.7306 429.821 90.2912ZM431.145 89.6776V90.2912C431.145 90.617 431.223 90.9125 431.378 91.1776C431.533 91.4428 431.804 91.5753 432.19 91.5753C432.573 91.5753 432.84 91.4428 432.992 91.1776C433.143 90.9125 433.219 90.617 433.219 90.2912V89.6776C433.219 89.3519 433.145 89.0564 432.997 88.7912C432.853 88.5261 432.584 88.3935 432.19 88.3935C431.812 88.3935 431.543 88.5261 431.384 88.7912C431.225 89.0564 431.145 89.3519 431.145 89.6776ZM423.969 83.6322V83.0185C423.969 82.5791 424.06 82.1757 424.242 81.8083C424.427 81.4409 424.696 81.1473 425.048 80.9276C425.404 80.7079 425.834 80.5981 426.338 80.5981C426.853 80.5981 427.285 80.7079 427.634 80.9276C427.982 81.1473 428.245 81.4409 428.423 81.8083C428.601 82.1757 428.69 82.5791 428.69 83.0185V83.6322C428.69 84.0716 428.6 84.475 428.418 84.8424C428.24 85.206 427.975 85.4996 427.622 85.7231C427.274 85.9428 426.846 86.0526 426.338 86.0526C425.823 86.0526 425.389 85.9428 425.037 85.7231C424.689 85.4996 424.423 85.206 424.242 84.8424C424.06 84.475 423.969 84.0716 423.969 83.6322ZM425.298 83.0185V83.6322C425.298 83.9579 425.374 84.2534 425.526 84.5185C425.681 84.7837 425.952 84.9162 426.338 84.9162C426.717 84.9162 426.982 84.7837 427.134 84.5185C427.289 84.2534 427.367 83.9579 427.367 83.6322V83.0185C427.367 82.6928 427.293 82.3973 427.145 82.1322C426.997 81.867 426.728 81.7344 426.338 81.7344C425.959 81.7344 425.69 81.867 425.531 82.1322C425.376 82.3973 425.298 82.6928 425.298 83.0185ZM424.509 92.4731L432.509 80.8367H433.867L425.867 92.4731H424.509ZM449.266 84.5128C449.156 84.1681 449.008 83.8594 448.823 83.5867C448.641 83.3102 448.423 83.0753 448.169 82.8822C447.915 82.6852 447.626 82.5356 447.3 82.4333C446.978 82.331 446.624 82.2799 446.237 82.2799C445.582 82.2799 444.991 82.4484 444.465 82.7856C443.938 83.1227 443.521 83.617 443.215 84.2685C442.912 84.9162 442.76 85.7098 442.76 86.6492C442.76 87.5924 442.913 88.3897 443.22 89.0412C443.527 89.6928 443.948 90.1871 444.482 90.5242C445.016 90.8613 445.624 91.0299 446.305 91.0299C446.938 91.0299 447.489 90.9011 447.959 90.6435C448.432 90.3859 448.798 90.0223 449.055 89.5526C449.317 89.0791 449.448 88.5223 449.448 87.8822L449.902 87.9674H446.573V86.5185H451.146V87.8424C451.146 88.8197 450.938 89.6681 450.521 90.3878C450.109 91.1038 449.537 91.6568 448.805 92.0469C448.078 92.4371 447.245 92.6322 446.305 92.6322C445.252 92.6322 444.328 92.3897 443.533 91.9049C442.741 91.42 442.124 90.7325 441.68 89.8424C441.237 88.9484 441.016 87.8878 441.016 86.6606C441.016 85.7325 441.145 84.8992 441.402 84.1606C441.66 83.4219 442.021 82.795 442.487 82.2799C442.957 81.7609 443.508 81.3651 444.141 81.0924C444.777 80.8159 445.472 80.6776 446.226 80.6776C446.855 80.6776 447.44 80.7704 447.982 80.956C448.527 81.1416 449.012 81.4049 449.436 81.7458C449.864 82.0867 450.218 82.492 450.499 82.9617C450.779 83.4276 450.968 83.9447 451.067 84.5128H449.266ZM456.915 92.6492C456.097 92.6492 455.383 92.4617 454.773 92.0867C454.163 91.7117 453.689 91.1871 453.352 90.5128C453.015 89.8386 452.847 89.0507 452.847 88.1492C452.847 87.2439 453.015 86.4522 453.352 85.7742C453.689 85.0962 454.163 84.5697 454.773 84.1947C455.383 83.8197 456.097 83.6322 456.915 83.6322C457.733 83.6322 458.447 83.8197 459.057 84.1947C459.667 84.5697 460.14 85.0962 460.477 85.7742C460.814 86.4522 460.983 87.2439 460.983 88.1492C460.983 89.0507 460.814 89.8386 460.477 90.5128C460.14 91.1871 459.667 91.7117 459.057 92.0867C458.447 92.4617 457.733 92.6492 456.915 92.6492ZM456.921 91.2231C457.451 91.2231 457.89 91.0829 458.239 90.8026C458.587 90.5223 458.845 90.1492 459.011 89.6833C459.182 89.2174 459.267 88.7041 459.267 88.1435C459.267 87.5867 459.182 87.0753 459.011 86.6094C458.845 86.1397 458.587 85.7628 458.239 85.4787C457.89 85.1947 457.451 85.0526 456.921 85.0526C456.386 85.0526 455.943 85.1947 455.591 85.4787C455.243 85.7628 454.983 86.1397 454.813 86.6094C454.646 87.0753 454.563 87.5867 454.563 88.1435C454.563 88.7041 454.646 89.2174 454.813 89.6833C454.983 90.1492 455.243 90.5223 455.591 90.8026C455.943 91.0829 456.386 91.2231 456.921 91.2231ZM464.578 80.8367V92.4731H462.879V80.8367H464.578ZM470.131 92.6435C469.426 92.6435 468.797 92.4636 468.244 92.1038C467.695 91.7401 467.263 91.2231 466.949 90.5526C466.638 89.8784 466.483 89.0697 466.483 88.1265C466.483 87.1833 466.64 86.3765 466.955 85.706C467.273 85.0356 467.708 84.5223 468.261 84.1663C468.814 83.8102 469.441 83.6322 470.142 83.6322C470.684 83.6322 471.119 83.7231 471.449 83.9049C471.782 84.0829 472.04 84.2912 472.222 84.5299C472.407 84.7685 472.551 84.9787 472.653 85.1606H472.756V80.8367H474.455V92.4731H472.796V91.1151H472.653C472.551 91.3007 472.403 91.5128 472.21 91.7515C472.021 91.9901 471.76 92.1984 471.426 92.3765C471.093 92.5545 470.661 92.6435 470.131 92.6435ZM470.506 91.1947C470.994 91.1947 471.407 91.0659 471.744 90.8083C472.085 90.5469 472.343 90.1852 472.517 89.7231C472.695 89.2609 472.784 88.7231 472.784 88.1094C472.784 87.5034 472.697 86.9731 472.523 86.5185C472.349 86.064 472.093 85.7098 471.756 85.456C471.419 85.2022 471.002 85.0753 470.506 85.0753C469.994 85.0753 469.568 85.2079 469.227 85.4731C468.886 85.7382 468.629 86.1 468.455 86.5583C468.284 87.0166 468.199 87.5337 468.199 88.1094C468.199 88.6928 468.286 89.2174 468.46 89.6833C468.635 90.1492 468.892 90.5185 469.233 90.7912C469.578 91.0602 470.002 91.1947 470.506 91.1947ZM485.546 80.2912L481.796 94.2231H480.278L484.028 80.2912H485.546ZM491.359 92.4731V80.8367H495.507C496.412 80.8367 497.162 81.0015 497.757 81.331C498.352 81.6606 498.797 82.1113 499.092 82.6833C499.388 83.2515 499.536 83.8916 499.536 84.6037C499.536 85.3197 499.386 85.9636 499.087 86.5356C498.791 87.1037 498.344 87.5545 497.746 87.8878C497.151 88.2174 496.403 88.3822 495.502 88.3822H492.649V86.8935H495.342C495.914 86.8935 496.378 86.795 496.734 86.5981C497.091 86.3973 497.352 86.1246 497.519 85.7799C497.685 85.4352 497.769 85.0431 497.769 84.6037C497.769 84.1644 497.685 83.7742 497.519 83.4333C497.352 83.0924 497.089 82.8253 496.729 82.6322C496.373 82.439 495.903 82.3424 495.32 82.3424H493.115V92.4731H491.359ZM503.156 80.8367V92.4731H501.457V80.8367H503.156ZM507.982 92.6663C507.429 92.6663 506.929 92.564 506.482 92.3594C506.035 92.1511 505.68 91.85 505.419 91.456C505.162 91.0621 505.033 90.5791 505.033 90.0072C505.033 89.5147 505.127 89.1094 505.317 88.7912C505.506 88.4731 505.762 88.2212 506.084 88.0356C506.406 87.85 506.766 87.7098 507.163 87.6151C507.561 87.5204 507.966 87.4484 508.379 87.3992C508.902 87.3386 509.326 87.2894 509.652 87.2515C509.978 87.2098 510.215 87.1435 510.362 87.0526C510.51 86.9617 510.584 86.814 510.584 86.6094V86.5697C510.584 86.0734 510.444 85.689 510.163 85.4162C509.887 85.1435 509.474 85.0072 508.925 85.0072C508.353 85.0072 507.902 85.1341 507.573 85.3878C507.247 85.6378 507.021 85.9162 506.896 86.2231L505.3 85.8594C505.489 85.3291 505.766 84.9011 506.129 84.5753C506.497 84.2458 506.919 84.0072 507.396 83.8594C507.874 83.7079 508.376 83.6322 508.902 83.6322C509.251 83.6322 509.62 83.6738 510.01 83.7572C510.404 83.8367 510.771 83.9844 511.112 84.2003C511.457 84.4162 511.739 84.725 511.959 85.1265C512.179 85.5242 512.288 86.0413 512.288 86.6776V92.4731H510.629V91.2799H510.561C510.451 91.4996 510.287 91.7155 510.067 91.9276C509.847 92.1397 509.565 92.3159 509.22 92.456C508.876 92.5962 508.463 92.6663 507.982 92.6663ZM508.351 91.3026C508.821 91.3026 509.222 91.2098 509.555 91.0242C509.893 90.8386 510.148 90.5962 510.323 90.2969C510.501 89.9939 510.59 89.67 510.59 89.3253V88.2003C510.529 88.2609 510.412 88.3178 510.237 88.3708C510.067 88.42 509.872 88.4636 509.652 88.5015C509.432 88.5356 509.218 88.5678 509.01 88.5981C508.802 88.6246 508.627 88.6473 508.487 88.6662C508.158 88.7079 507.857 88.778 507.584 88.8765C507.315 88.975 507.099 89.117 506.936 89.3026C506.777 89.4844 506.698 89.7269 506.698 90.0299C506.698 90.4503 506.853 90.7685 507.163 90.9844C507.474 91.1966 507.87 91.3026 508.351 91.3026ZM518.625 83.7458V85.1094H513.858V83.7458H518.625ZM515.136 81.6549H516.835V89.9106C516.835 90.2401 516.885 90.4882 516.983 90.6549C517.082 90.8178 517.208 90.9295 517.364 90.9901C517.523 91.0469 517.695 91.0753 517.881 91.0753C518.017 91.0753 518.136 91.0659 518.239 91.0469C518.341 91.028 518.421 91.0128 518.477 91.0015L518.784 92.4049C518.686 92.4428 518.546 92.4806 518.364 92.5185C518.182 92.5602 517.955 92.5829 517.682 92.5867C517.235 92.5943 516.818 92.5147 516.432 92.3481C516.046 92.1814 515.733 91.9238 515.494 91.5753C515.256 91.2269 515.136 90.7894 515.136 90.2628V81.6549ZM520.504 92.4731V83.7458H522.203V92.4731H520.504ZM521.362 82.3992C521.067 82.3992 520.813 82.3007 520.601 82.1037C520.393 81.903 520.288 81.6644 520.288 81.3878C520.288 81.1075 520.393 80.8689 520.601 80.6719C520.813 80.4712 521.067 80.3708 521.362 80.3708C521.658 80.3708 521.91 80.4712 522.118 80.6719C522.33 80.8689 522.436 81.1075 522.436 81.3878C522.436 81.6644 522.33 81.903 522.118 82.1037C521.91 82.3007 521.658 82.3992 521.362 82.3992ZM526.188 87.2912V92.4731H524.489V83.7458H526.119V85.1662H526.227C526.428 84.7041 526.743 84.3329 527.171 84.0526C527.602 83.7723 528.146 83.6322 528.801 83.6322C529.396 83.6322 529.917 83.7572 530.364 84.0072C530.811 84.2534 531.157 84.6208 531.403 85.1094C531.65 85.5981 531.773 86.2022 531.773 86.9219V92.4731H530.074V87.1265C530.074 86.4939 529.909 85.9996 529.58 85.6435C529.25 85.2837 528.797 85.1037 528.222 85.1037C527.828 85.1037 527.477 85.189 527.171 85.3594C526.868 85.5299 526.627 85.7799 526.449 86.1094C526.275 86.4352 526.188 86.8291 526.188 87.2912ZM539.58 88.8537V83.7458H541.284V92.4731H539.614V90.9617H539.523C539.322 91.4276 539 91.8159 538.557 92.1265C538.118 92.4333 537.57 92.5867 536.915 92.5867C536.354 92.5867 535.858 92.4636 535.426 92.2174C534.998 91.9674 534.661 91.5981 534.415 91.1094C534.172 90.6208 534.051 90.0166 534.051 89.2969V83.7458H535.75V89.0924C535.75 89.6871 535.915 90.1606 536.244 90.5128C536.574 90.8651 537.002 91.0412 537.528 91.0412C537.847 91.0412 538.163 90.9617 538.477 90.8026C538.796 90.6435 539.059 90.403 539.267 90.081C539.479 89.7591 539.583 89.35 539.58 88.8537ZM543.567 92.4731V83.7458H545.198V85.1662H545.305C545.487 84.6852 545.785 84.3102 546.198 84.0413C546.61 83.7685 547.105 83.6322 547.68 83.6322C548.264 83.6322 548.752 83.7685 549.146 84.0413C549.544 84.314 549.838 84.689 550.027 85.1662H550.118C550.326 84.7003 550.658 84.3291 551.112 84.0526C551.567 83.7723 552.109 83.6322 552.737 83.6322C553.529 83.6322 554.175 83.8803 554.675 84.3765C555.179 84.8727 555.43 85.6208 555.43 86.6208V92.4731H553.732V86.7799C553.732 86.189 553.571 85.7609 553.249 85.4958C552.927 85.2306 552.542 85.0981 552.095 85.0981C551.542 85.0981 551.112 85.2685 550.805 85.6094C550.499 85.9466 550.345 86.3803 550.345 86.9106V92.4731H548.652V86.6719C548.652 86.1984 548.504 85.8178 548.209 85.5299C547.913 85.242 547.529 85.0981 547.055 85.0981C546.734 85.0981 546.436 85.1833 546.163 85.3537C545.895 85.5204 545.677 85.7534 545.51 86.0526C545.347 86.3519 545.266 86.6984 545.266 87.0924V92.4731H543.567Z" fill="white"/>
<path d="M431.053 128.86C429.735 128.86 428.531 128.533 427.44 127.878C426.35 127.224 425.478 126.352 424.824 125.262C424.17 124.162 423.843 122.948 423.843 121.62C423.843 120.877 423.927 120.228 424.096 119.673C424.274 119.118 424.537 118.519 424.884 117.874L430.77 107.662H433.669L429.462 114.961C430.314 114.693 431.162 114.599 432.004 114.678C432.846 114.758 433.644 114.986 434.397 115.362C435.16 115.739 435.834 116.234 436.419 116.849C437.004 117.463 437.464 118.177 437.801 118.989C438.138 119.792 438.307 120.669 438.307 121.62C438.307 122.621 438.113 123.558 437.727 124.43C437.35 125.302 436.83 126.07 436.166 126.734C435.512 127.398 434.744 127.918 433.862 128.295C432.98 128.671 432.044 128.86 431.053 128.86ZM431.053 126.362C431.964 126.362 432.777 126.139 433.49 125.693C434.214 125.247 434.779 124.663 435.185 123.939C435.601 123.216 435.809 122.443 435.809 121.62C435.809 120.758 435.596 119.97 435.17 119.257C434.754 118.543 434.184 117.974 433.461 117.547C432.747 117.111 431.954 116.893 431.082 116.893C430.171 116.893 429.358 117.116 428.644 117.562C427.931 118.008 427.366 118.588 426.95 119.301C426.544 120.015 426.34 120.788 426.34 121.62C426.34 122.522 426.558 123.33 426.994 124.043C427.431 124.757 428.005 125.322 428.719 125.738C429.442 126.154 430.22 126.362 431.053 126.362ZM441.161 128.473L451.715 110.16H439.779V107.662H454.599V110.16L444.015 128.473H441.161ZM457.708 128.473L469.719 107.662H472.603L460.592 128.473H457.708ZM460.176 116.031C459.472 116.031 458.833 115.863 458.258 115.526C457.693 115.189 457.238 114.733 456.891 114.158C456.544 113.583 456.37 112.944 456.37 112.241C456.37 111.517 456.544 110.873 456.891 110.308C457.238 109.733 457.698 109.278 458.273 108.941C458.848 108.604 459.482 108.435 460.176 108.435C460.87 108.435 461.504 108.609 462.079 108.955C462.653 109.292 463.109 109.748 463.446 110.323C463.793 110.888 463.966 111.527 463.966 112.241C463.966 112.954 463.793 113.598 463.446 114.173C463.099 114.738 462.639 115.189 462.064 115.526C461.489 115.863 460.86 116.031 460.176 116.031ZM460.176 114.203C460.721 114.203 461.182 114.015 461.558 113.638C461.945 113.251 462.138 112.786 462.138 112.241C462.138 111.686 461.945 111.22 461.558 110.843C461.182 110.457 460.721 110.264 460.176 110.264C459.631 110.264 459.165 110.457 458.779 110.843C458.392 111.22 458.199 111.686 458.199 112.241C458.199 112.786 458.392 113.251 458.779 113.638C459.165 114.015 459.631 114.203 460.176 114.203ZM470.15 127.715C469.457 127.715 468.817 127.542 468.233 127.195C467.658 126.838 467.197 126.372 466.85 125.797C466.513 125.213 466.345 124.583 466.345 123.91C466.345 123.196 466.518 122.552 466.865 121.977C467.222 121.402 467.688 120.946 468.262 120.61C468.837 120.273 469.466 120.104 470.15 120.104C470.864 120.104 471.508 120.283 472.083 120.639C472.657 120.986 473.113 121.447 473.45 122.022C473.787 122.596 473.956 123.226 473.956 123.91C473.956 124.613 473.782 125.252 473.435 125.827C473.098 126.402 472.643 126.863 472.068 127.21C471.493 127.546 470.854 127.715 470.15 127.715ZM470.15 125.887C470.695 125.887 471.161 125.693 471.548 125.307C471.934 124.92 472.127 124.455 472.127 123.91C472.127 123.365 471.934 122.899 471.548 122.512C471.161 122.126 470.695 121.933 470.15 121.933C469.605 121.933 469.139 122.126 468.753 122.512C468.366 122.899 468.173 123.365 468.173 123.91C468.173 124.455 468.366 124.92 468.753 125.307C469.139 125.693 469.605 125.887 470.15 125.887Z" fill="white"/>
<mask id="path-18-inside-4_292_10658" fill="white">
<path d="M621.29 68H941.355V145.946H621.29V68Z"/>
</mask>
<path d="M941.355 68H940.272V145.946H941.355H942.437V68H941.355Z" fill="#314158" fill-opacity="0.5" mask="url(#path-18-inside-4_292_10658)"/>
<g filter="url(#filter3_d_292_10658)">
<path d="M668.606 100.306H676.606V108.306" stroke="#EC4899" stroke-width="1.80431" stroke-linecap="round" stroke-linejoin="round"/>
<path d="M676.607 100.306L665.274 111.64L658.607 104.973L649.94 113.64" stroke="#EC4899" stroke-width="1.80431" stroke-linecap="round" stroke-linejoin="round"/>
</g>
<path opacity="0.8" d="M700.551 98.4731V86.8367H704.812C705.638 86.8367 706.322 86.9731 706.863 87.2458C707.405 87.5147 707.81 87.8803 708.079 88.3424C708.348 88.8007 708.483 89.3178 708.483 89.8935C708.483 90.3784 708.394 90.7875 708.216 91.1208C708.038 91.4503 707.799 91.7155 707.5 91.9162C707.204 92.1132 706.879 92.2572 706.522 92.3481V92.4617C706.909 92.4806 707.286 92.6056 707.653 92.8367C708.024 93.064 708.331 93.3878 708.574 93.8083C708.816 94.2287 708.937 94.7401 708.937 95.3424C708.937 95.9371 708.797 96.4712 708.517 96.9447C708.24 97.4144 707.812 97.7875 707.233 98.064C706.653 98.3367 705.913 98.4731 705.011 98.4731H700.551ZM702.307 96.9674H704.841C705.682 96.9674 706.284 96.8045 706.647 96.4787C707.011 96.153 707.193 95.7458 707.193 95.2572C707.193 94.8897 707.1 94.5526 706.915 94.2458C706.729 93.939 706.464 93.6947 706.119 93.5128C705.778 93.331 705.373 93.2401 704.903 93.2401H702.307V96.9674ZM702.307 91.8708H704.659C705.053 91.8708 705.407 91.795 705.721 91.6435C706.04 91.492 706.291 91.2799 706.477 91.0072C706.666 90.7306 706.761 90.4049 706.761 90.0299C706.761 89.5488 706.593 89.1454 706.255 88.8197C705.918 88.4939 705.401 88.331 704.704 88.331H702.307V91.8708ZM710.883 98.4731V89.7458H712.582V98.4731H710.883ZM711.741 88.3992C711.446 88.3992 711.192 88.3007 710.98 88.1037C710.772 87.903 710.667 87.6644 710.667 87.3878C710.667 87.1075 710.772 86.8689 710.98 86.6719C711.192 86.4712 711.446 86.3708 711.741 86.3708C712.037 86.3708 712.289 86.4712 712.497 86.6719C712.709 86.8689 712.815 87.1075 712.815 87.3878C712.815 87.6644 712.709 87.903 712.497 88.1037C712.289 88.3007 712.037 88.3992 711.741 88.3992ZM718.527 101.928C717.834 101.928 717.237 101.837 716.737 101.655C716.241 101.473 715.835 101.233 715.521 100.933C715.207 100.634 714.972 100.306 714.816 99.9503L716.277 99.3481C716.379 99.5147 716.515 99.6909 716.686 99.8765C716.86 100.066 717.095 100.227 717.39 100.359C717.69 100.492 718.074 100.558 718.544 100.558C719.188 100.558 719.72 100.401 720.14 100.087C720.561 99.7761 720.771 99.2799 720.771 98.5981V96.8822H720.663C720.561 97.0678 720.413 97.2742 720.22 97.5015C720.031 97.7288 719.769 97.9257 719.436 98.0924C719.102 98.2591 718.669 98.3424 718.135 98.3424C717.445 98.3424 716.824 98.1814 716.271 97.8594C715.722 97.5337 715.286 97.0545 714.964 96.4219C714.646 95.7856 714.487 95.0034 714.487 94.0753C714.487 93.1473 714.644 92.3519 714.959 91.689C715.277 91.0261 715.712 90.5185 716.265 90.1663C716.818 89.8102 717.445 89.6322 718.146 89.6322C718.688 89.6322 719.125 89.7231 719.459 89.9049C719.792 90.0829 720.051 90.2912 720.237 90.5299C720.426 90.7685 720.572 90.9787 720.674 91.1606H720.799V89.7458H722.464V98.6663C722.464 99.4163 722.29 100.032 721.941 100.513C721.593 100.994 721.121 101.35 720.527 101.581C719.936 101.812 719.269 101.928 718.527 101.928ZM718.51 96.9333C718.998 96.9333 719.411 96.8197 719.748 96.5924C720.089 96.3613 720.347 96.0318 720.521 95.6037C720.699 95.1719 720.788 94.6549 720.788 94.0526C720.788 93.4655 720.701 92.9484 720.527 92.5015C720.352 92.0545 720.097 91.706 719.76 91.456C719.423 91.2022 719.006 91.0753 718.51 91.0753C717.998 91.0753 717.572 91.2079 717.231 91.4731C716.89 91.7344 716.633 92.0905 716.459 92.5412C716.288 92.992 716.203 93.4958 716.203 94.0526C716.203 94.6246 716.29 95.1265 716.464 95.5583C716.638 95.9901 716.896 96.3272 717.237 96.5697C717.582 96.8121 718.006 96.9333 718.51 96.9333ZM728.402 101.928C727.709 101.928 727.112 101.837 726.612 101.655C726.116 101.473 725.71 101.233 725.396 100.933C725.082 100.634 724.847 100.306 724.691 99.9503L726.152 99.3481C726.254 99.5147 726.39 99.6909 726.561 99.8765C726.735 100.066 726.97 100.227 727.265 100.359C727.565 100.492 727.949 100.558 728.419 100.558C729.063 100.558 729.595 100.401 730.015 100.087C730.436 99.7761 730.646 99.2799 730.646 98.5981V96.8822H730.538C730.436 97.0678 730.288 97.2742 730.095 97.5015C729.906 97.7288 729.644 97.9257 729.311 98.0924C728.977 98.2591 728.544 98.3424 728.01 98.3424C727.32 98.3424 726.699 98.1814 726.146 97.8594C725.597 97.5337 725.161 97.0545 724.839 96.4219C724.521 95.7856 724.362 95.0034 724.362 94.0753C724.362 93.1473 724.519 92.3519 724.834 91.689C725.152 91.0261 725.587 90.5185 726.14 90.1663C726.693 89.8102 727.32 89.6322 728.021 89.6322C728.563 89.6322 729 89.7231 729.334 89.9049C729.667 90.0829 729.926 90.2912 730.112 90.5299C730.301 90.7685 730.447 90.9787 730.549 91.1606H730.674V89.7458H732.339V98.6663C732.339 99.4163 732.165 100.032 731.816 100.513C731.468 100.994 730.996 101.35 730.402 101.581C729.811 101.812 729.144 101.928 728.402 101.928ZM728.385 96.9333C728.873 96.9333 729.286 96.8197 729.623 96.5924C729.964 96.3613 730.222 96.0318 730.396 95.6037C730.574 95.1719 730.663 94.6549 730.663 94.0526C730.663 93.4655 730.576 92.9484 730.402 92.5015C730.227 92.0545 729.972 91.706 729.635 91.456C729.298 91.2022 728.881 91.0753 728.385 91.0753C727.873 91.0753 727.447 91.2079 727.106 91.4731C726.765 91.7344 726.508 92.0905 726.334 92.5412C726.163 92.992 726.078 93.4958 726.078 94.0526C726.078 94.6246 726.165 95.1265 726.339 95.5583C726.513 95.9901 726.771 96.3272 727.112 96.5697C727.457 96.8121 727.881 96.9333 728.385 96.9333ZM738.379 98.6492C737.519 98.6492 736.779 98.4655 736.157 98.0981C735.54 97.7269 735.063 97.206 734.726 96.5356C734.392 95.8613 734.226 95.0716 734.226 94.1662C734.226 93.2723 734.392 92.4844 734.726 91.8026C735.063 91.1208 735.532 90.5886 736.135 90.206C736.741 89.8234 737.449 89.6322 738.26 89.6322C738.752 89.6322 739.229 89.7136 739.691 89.8765C740.154 90.0394 740.568 90.295 740.936 90.6435C741.303 90.992 741.593 91.4447 741.805 92.0015C742.017 92.5545 742.123 93.2269 742.123 94.0185V94.6208H735.186V93.3481H740.459C740.459 92.9011 740.368 92.5053 740.186 92.1606C740.004 91.8121 739.748 91.5375 739.419 91.3367C739.093 91.1359 738.71 91.0356 738.271 91.0356C737.794 91.0356 737.377 91.153 737.021 91.3878C736.669 91.6189 736.396 91.9219 736.203 92.2969C736.013 92.6681 735.919 93.0716 735.919 93.5072V94.5015C735.919 95.0848 736.021 95.581 736.226 95.9901C736.434 96.3992 736.724 96.7117 737.095 96.9276C737.466 97.1397 737.9 97.2458 738.396 97.2458C738.718 97.2458 739.012 97.2003 739.277 97.1094C739.542 97.0147 739.771 96.8746 739.964 96.689C740.157 96.5034 740.305 96.2742 740.407 96.0015L742.015 96.2912C741.887 96.7647 741.656 97.1795 741.322 97.5356C740.993 97.8878 740.578 98.1625 740.078 98.3594C739.582 98.5526 739.015 98.6492 738.379 98.6492ZM750.548 91.8765L749.008 92.1492C748.944 91.9522 748.842 91.7647 748.701 91.5867C748.565 91.4087 748.379 91.2628 748.145 91.1492C747.91 91.0356 747.616 90.9787 747.264 90.9787C746.783 90.9787 746.381 91.0867 746.059 91.3026C745.737 91.5147 745.576 91.7894 745.576 92.1265C745.576 92.4181 745.684 92.653 745.9 92.831C746.116 93.0091 746.465 93.1549 746.946 93.2685L748.332 93.5867C749.135 93.7723 749.734 94.0583 750.128 94.4447C750.522 94.831 750.718 95.3329 750.718 95.9503C750.718 96.4731 750.567 96.939 750.264 97.3481C749.965 97.7534 749.546 98.0716 749.008 98.3026C748.474 98.5337 747.855 98.6492 747.15 98.6492C746.173 98.6492 745.376 98.4409 744.758 98.0242C744.141 97.6038 743.762 97.0072 743.622 96.2344L745.264 95.9844C745.366 96.4125 745.576 96.7363 745.895 96.956C746.213 97.1719 746.628 97.2799 747.139 97.2799C747.696 97.2799 748.141 97.1644 748.474 96.9333C748.807 96.6984 748.974 96.4125 748.974 96.0753C748.974 95.8026 748.872 95.5734 748.667 95.3878C748.467 95.2022 748.158 95.0621 747.741 94.9674L746.264 94.6435C745.45 94.4579 744.847 94.1625 744.457 93.7572C744.071 93.3519 743.878 92.8386 743.878 92.2174C743.878 91.7022 744.022 91.2515 744.309 90.8651C744.597 90.4787 744.995 90.1776 745.503 89.9617C746.01 89.742 746.592 89.6322 747.247 89.6322C748.19 89.6322 748.932 89.8367 749.474 90.2458C750.016 90.6511 750.374 91.1947 750.548 91.8765ZM756.66 89.7458V91.1094H751.893V89.7458H756.66ZM753.172 87.6549H754.87V95.9106C754.87 96.2401 754.92 96.4882 755.018 96.6549C755.117 96.8178 755.244 96.9295 755.399 96.9901C755.558 97.0469 755.73 97.0753 755.916 97.0753C756.052 97.0753 756.172 97.0659 756.274 97.0469C756.376 97.028 756.456 97.0128 756.513 97.0015L756.819 98.4049C756.721 98.4428 756.581 98.4806 756.399 98.5185C756.217 98.5602 755.99 98.5829 755.717 98.5867C755.27 98.5943 754.853 98.5147 754.467 98.3481C754.081 98.1814 753.768 97.9238 753.53 97.5753C753.291 97.2269 753.172 96.7894 753.172 96.2628V87.6549ZM762.91 98.4731V86.8367H767.058C767.959 86.8367 768.708 86.992 769.302 87.3026C769.901 87.6132 770.348 88.0431 770.643 88.5924C770.939 89.1378 771.086 89.7685 771.086 90.4844C771.086 91.1966 770.937 91.8234 770.638 92.3651C770.342 92.903 769.895 93.3216 769.297 93.6208C768.702 93.92 767.954 94.0697 767.052 94.0697H763.91V92.5583H766.893C767.461 92.5583 767.924 92.4769 768.28 92.314C768.639 92.1511 768.903 91.9144 769.069 91.6037C769.236 91.2931 769.319 90.92 769.319 90.4844C769.319 90.045 769.234 89.6644 769.064 89.3424C768.897 89.0204 768.634 88.7742 768.274 88.6038C767.918 88.4295 767.45 88.3424 766.87 88.3424H764.666V98.4731H762.91ZM768.655 93.2231L771.53 98.4731H769.53L766.711 93.2231H768.655ZM773.086 98.4731V89.7458H774.785V98.4731H773.086ZM773.944 88.3992C773.649 88.3992 773.395 88.3007 773.183 88.1037C772.975 87.903 772.87 87.6644 772.87 87.3878C772.87 87.1075 772.975 86.8689 773.183 86.6719C773.395 86.4712 773.649 86.3708 773.944 86.3708C774.24 86.3708 774.492 86.4712 774.7 86.6719C774.912 86.8689 775.018 87.1075 775.018 87.3878C775.018 87.6644 774.912 87.903 774.7 88.1037C774.492 88.3007 774.24 88.3992 773.944 88.3992ZM783.611 91.8765L782.071 92.1492C782.006 91.9522 781.904 91.7647 781.764 91.5867C781.628 91.4087 781.442 91.2628 781.207 91.1492C780.972 91.0356 780.679 90.9787 780.326 90.9787C779.845 90.9787 779.444 91.0867 779.122 91.3026C778.8 91.5147 778.639 91.7894 778.639 92.1265C778.639 92.4181 778.747 92.653 778.963 92.831C779.179 93.0091 779.527 93.1549 780.008 93.2685L781.395 93.5867C782.198 93.7723 782.796 94.0583 783.19 94.4447C783.584 94.831 783.781 95.3329 783.781 95.9503C783.781 96.4731 783.629 96.939 783.326 97.3481C783.027 97.7534 782.609 98.0716 782.071 98.3026C781.537 98.5337 780.917 98.6492 780.213 98.6492C779.236 98.6492 778.438 98.4409 777.821 98.0242C777.203 97.6038 776.825 97.0072 776.684 96.2344L778.326 95.9844C778.429 96.4125 778.639 96.7363 778.957 96.956C779.275 97.1719 779.69 97.2799 780.201 97.2799C780.758 97.2799 781.203 97.1644 781.537 96.9333C781.87 96.6984 782.037 96.4125 782.037 96.0753C782.037 95.8026 781.934 95.5734 781.73 95.3878C781.529 95.2022 781.22 95.0621 780.804 94.9674L779.326 94.6435C778.512 94.4579 777.91 94.1625 777.52 93.7572C777.133 93.3519 776.94 92.8386 776.94 92.2174C776.94 91.7022 777.084 91.2515 777.372 90.8651C777.66 90.4787 778.057 90.1776 778.565 89.9617C779.073 89.742 779.654 89.6322 780.309 89.6322C781.253 89.6322 781.995 89.8367 782.537 90.2458C783.078 90.6511 783.436 91.1947 783.611 91.8765ZM789.41 98.6492C788.55 98.6492 787.81 98.4655 787.189 98.0981C786.571 97.7269 786.094 97.206 785.757 96.5356C785.424 95.8613 785.257 95.0716 785.257 94.1662C785.257 93.2723 785.424 92.4844 785.757 91.8026C786.094 91.1208 786.564 90.5886 787.166 90.206C787.772 89.8234 788.48 89.6322 789.291 89.6322C789.783 89.6322 790.261 89.7136 790.723 89.8765C791.185 90.0394 791.6 90.295 791.967 90.6435C792.334 90.992 792.624 91.4447 792.836 92.0015C793.049 92.5545 793.155 93.2269 793.155 94.0185V94.6208H786.217V93.3481H791.49C791.49 92.9011 791.399 92.5053 791.217 92.1606C791.035 91.8121 790.78 91.5375 790.45 91.3367C790.124 91.1359 789.742 91.0356 789.302 91.0356C788.825 91.0356 788.408 91.153 788.052 91.3878C787.7 91.6189 787.427 91.9219 787.234 92.2969C787.045 92.6681 786.95 93.0716 786.95 93.5072V94.5015C786.95 95.0848 787.052 95.581 787.257 95.9901C787.465 96.3992 787.755 96.7117 788.126 96.9276C788.497 97.1397 788.931 97.2458 789.427 97.2458C789.749 97.2458 790.043 97.2003 790.308 97.1094C790.573 97.0147 790.802 96.8746 790.995 96.689C791.189 96.5034 791.336 96.2742 791.439 96.0015L793.047 96.2912C792.918 96.7647 792.687 97.1795 792.353 97.5356C792.024 97.8878 791.609 98.1625 791.109 98.3594C790.613 98.5526 790.047 98.6492 789.41 98.6492ZM795.04 98.4731V89.7458H796.682V91.1322H796.772C796.932 90.6625 797.212 90.2931 797.613 90.0242C798.019 89.7515 798.477 89.6151 798.988 89.6151C799.094 89.6151 799.219 89.6189 799.363 89.6265C799.511 89.6341 799.627 89.6435 799.71 89.6549V91.2799C799.642 91.2609 799.521 91.2401 799.346 91.2174C799.172 91.1909 798.998 91.1776 798.824 91.1776C798.422 91.1776 798.064 91.2628 797.75 91.4333C797.439 91.6 797.193 91.8329 797.011 92.1322C796.829 92.4276 796.738 92.7647 796.738 93.1435V98.4731H795.04Z" fill="white"/>
<path d="M700.64 125.473V111.473H705.27C706.237 111.473 707.144 111.656 707.99 112.023C708.837 112.383 709.58 112.886 710.22 113.533C710.86 114.173 711.36 114.916 711.72 115.763C712.087 116.603 712.27 117.506 712.27 118.473C712.27 119.44 712.087 120.346 711.72 121.193C711.36 122.033 710.86 122.776 710.22 123.423C709.58 124.063 708.837 124.566 707.99 124.933C707.144 125.293 706.237 125.473 705.27 125.473H700.64ZM702.32 123.793H705.27C706.004 123.793 706.69 123.656 707.33 123.383C707.977 123.103 708.544 122.72 709.03 122.233C709.517 121.746 709.897 121.183 710.17 120.543C710.45 119.896 710.59 119.206 710.59 118.473C710.59 117.74 710.45 117.053 710.17 116.413C709.897 115.766 709.514 115.2 709.02 114.713C708.534 114.226 707.97 113.846 707.33 113.573C706.69 113.293 706.004 113.153 705.27 113.153H702.32V123.793ZM717.889 111.473H719.919L725.009 125.473H723.229L722.189 122.613H715.619L714.589 125.473H712.799L717.889 111.473ZM716.239 120.933H721.569L718.899 113.623L716.239 120.933ZM732.629 125.733C731.682 125.733 730.792 125.546 729.959 125.173C729.125 124.793 728.392 124.27 727.759 123.603C727.125 122.936 726.629 122.166 726.269 121.293C725.909 120.413 725.729 119.473 725.729 118.473C725.729 117.473 725.909 116.536 726.269 115.663C726.629 114.783 727.125 114.01 727.759 113.343C728.392 112.676 729.125 112.156 729.959 111.783C730.792 111.403 731.682 111.213 732.629 111.213C733.582 111.213 734.475 111.403 735.309 111.783C736.142 112.156 736.875 112.676 737.509 113.343C738.142 114.01 738.635 114.783 738.989 115.663C739.349 116.536 739.529 117.473 739.529 118.473C739.529 119.473 739.349 120.413 738.989 121.293C738.635 122.166 738.142 122.936 737.509 123.603C736.875 124.27 736.142 124.793 735.309 125.173C734.475 125.546 733.582 125.733 732.629 125.733ZM732.629 124.053C733.355 124.053 734.032 123.906 734.659 123.613C735.292 123.32 735.845 122.916 736.319 122.403C736.799 121.883 737.172 121.29 737.439 120.623C737.712 119.95 737.849 119.233 737.849 118.473C737.849 117.713 737.712 116.996 737.439 116.323C737.165 115.643 736.789 115.05 736.309 114.543C735.835 114.03 735.282 113.626 734.649 113.333C734.022 113.04 733.349 112.893 732.629 112.893C731.902 112.893 731.222 113.04 730.589 113.333C729.962 113.626 729.409 114.033 728.929 114.553C728.455 115.066 728.082 115.66 727.809 116.333C727.542 117 727.409 117.713 727.409 118.473C727.409 119.24 727.545 119.96 727.819 120.633C728.092 121.306 728.465 121.9 728.939 122.413C729.419 122.926 729.972 123.33 730.599 123.623C731.232 123.91 731.909 124.053 732.629 124.053ZM752.814 125.733C751.847 125.733 750.944 125.546 750.104 125.173C749.271 124.793 748.541 124.27 747.914 123.603C747.294 122.93 746.807 122.156 746.454 121.283C746.101 120.403 745.924 119.463 745.924 118.463C745.924 117.43 746.107 116.473 746.474 115.593C746.847 114.713 747.354 113.946 747.994 113.293C748.641 112.64 749.377 112.133 750.204 111.773C751.037 111.406 751.917 111.223 752.844 111.223C753.897 111.223 754.901 111.47 755.854 111.963C756.807 112.456 757.627 113.17 758.314 114.103L756.814 114.913C756.301 114.26 755.691 113.76 754.984 113.413C754.284 113.066 753.564 112.893 752.824 112.893C752.117 112.893 751.447 113.036 750.814 113.323C750.187 113.61 749.631 114.01 749.144 114.523C748.664 115.036 748.287 115.63 748.014 116.303C747.741 116.976 747.604 117.706 747.604 118.493C747.604 119.26 747.741 119.98 748.014 120.653C748.287 121.326 748.661 121.92 749.134 122.433C749.614 122.94 750.171 123.336 750.804 123.623C751.437 123.91 752.114 124.053 752.834 124.053C753.407 124.053 753.951 123.956 754.464 123.763C754.984 123.57 755.461 123.296 755.894 122.943C756.334 122.59 756.707 122.173 757.014 121.693C757.327 121.213 757.564 120.686 757.724 120.113H754.274V118.613H759.684C759.677 119.593 759.491 120.513 759.124 121.373C758.764 122.233 758.267 122.99 757.634 123.643C757.007 124.296 756.281 124.81 755.454 125.183C754.634 125.55 753.754 125.733 752.814 125.733ZM765.9 125.733C764.98 125.733 764.14 125.496 763.38 125.023C762.626 124.55 762.023 123.916 761.57 123.123C761.123 122.323 760.9 121.44 760.9 120.473C760.9 119.74 761.03 119.056 761.29 118.423C761.55 117.783 761.906 117.223 762.36 116.743C762.82 116.256 763.353 115.876 763.96 115.603C764.566 115.33 765.213 115.193 765.9 115.193C766.82 115.193 767.656 115.43 768.41 115.903C769.17 116.376 769.773 117.013 770.22 117.813C770.673 118.613 770.9 119.5 770.9 120.473C770.9 121.2 770.77 121.88 770.51 122.513C770.25 123.146 769.89 123.706 769.43 124.193C768.976 124.673 768.446 125.05 767.84 125.323C767.24 125.596 766.593 125.733 765.9 125.733ZM765.9 124.053C766.526 124.053 767.09 123.89 767.59 123.563C768.096 123.23 768.493 122.793 768.78 122.253C769.073 121.706 769.22 121.113 769.22 120.473C769.22 119.82 769.07 119.22 768.77 118.673C768.476 118.126 768.08 117.69 767.58 117.363C767.08 117.036 766.52 116.873 765.9 116.873C765.273 116.873 764.71 117.04 764.21 117.373C763.71 117.7 763.313 118.136 763.02 118.683C762.726 119.23 762.58 119.826 762.58 120.473C762.58 121.14 762.73 121.746 763.03 122.293C763.33 122.833 763.733 123.263 764.24 123.583C764.746 123.896 765.3 124.053 765.9 124.053ZM777.325 125.473H775.175L771.525 115.453H773.315L776.245 123.523L779.175 115.453H780.965L777.325 125.473ZM786.603 125.733C785.683 125.733 784.843 125.496 784.083 125.023C783.33 124.55 782.726 123.916 782.273 123.123C781.826 122.323 781.603 121.44 781.603 120.473C781.603 119.74 781.733 119.056 781.993 118.423C782.253 117.783 782.61 117.223 783.063 116.743C783.523 116.256 784.056 115.876 784.663 115.603C785.27 115.33 785.916 115.193 786.603 115.193C787.356 115.193 788.046 115.346 788.673 115.653C789.306 115.953 789.846 116.373 790.293 116.913C790.746 117.453 791.083 118.08 791.303 118.793C791.53 119.506 791.613 120.27 791.553 121.083H783.393C783.473 121.65 783.66 122.156 783.953 122.603C784.246 123.043 784.62 123.393 785.073 123.653C785.533 123.913 786.043 124.046 786.603 124.053C787.203 124.053 787.746 123.9 788.233 123.593C788.72 123.28 789.113 122.853 789.413 122.313L791.123 122.713C790.723 123.6 790.12 124.326 789.313 124.893C788.506 125.453 787.603 125.733 786.603 125.733ZM783.343 119.763H789.863C789.81 119.203 789.63 118.693 789.323 118.233C789.016 117.766 788.626 117.393 788.153 117.113C787.68 116.833 787.163 116.693 786.603 116.693C786.043 116.693 785.53 116.83 785.063 117.103C784.596 117.376 784.21 117.746 783.903 118.213C783.603 118.673 783.416 119.19 783.343 119.763ZM793.238 125.473V115.473H794.918V116.723C795.271 116.256 795.718 115.886 796.258 115.613C796.798 115.333 797.385 115.193 798.018 115.193C798.405 115.193 798.778 115.243 799.138 115.343L798.458 117.023C798.185 116.936 797.918 116.893 797.658 116.893C797.158 116.893 796.698 117.016 796.278 117.263C795.865 117.503 795.535 117.83 795.288 118.243C795.041 118.656 794.918 119.116 794.918 119.623V125.473H793.238ZM809.246 119.253V125.473H807.566V119.623C807.566 119.116 807.443 118.656 807.196 118.243C806.949 117.83 806.619 117.503 806.206 117.263C805.793 117.016 805.333 116.893 804.826 116.893C804.326 116.893 803.866 117.016 803.446 117.263C803.033 117.503 802.703 117.83 802.456 118.243C802.209 118.656 802.086 119.116 802.086 119.623V125.473H800.406V115.473H802.086V116.723C802.439 116.256 802.886 115.886 803.426 115.613C803.966 115.333 804.553 115.193 805.186 115.193C805.933 115.193 806.613 115.376 807.226 115.743C807.846 116.103 808.336 116.59 808.696 117.203C809.063 117.816 809.246 118.5 809.246 119.253ZM819.091 115.473H820.771V125.473H819.091L819.021 123.783C818.707 124.363 818.274 124.833 817.721 125.193C817.174 125.553 816.521 125.733 815.761 125.733C815.027 125.733 814.341 125.596 813.701 125.323C813.061 125.043 812.494 124.66 812.001 124.173C811.514 123.68 811.134 123.113 810.861 122.473C810.587 121.833 810.451 121.143 810.451 120.403C810.451 119.69 810.584 119.016 810.851 118.383C811.117 117.75 811.487 117.196 811.961 116.723C812.441 116.243 812.994 115.87 813.621 115.603C814.247 115.33 814.921 115.193 815.641 115.193C816.427 115.193 817.117 115.38 817.711 115.753C818.304 116.12 818.784 116.596 819.151 117.183L819.091 115.473ZM815.731 124.103C816.391 124.103 816.961 123.943 817.441 123.623C817.927 123.296 818.301 122.856 818.561 122.303C818.827 121.75 818.961 121.14 818.961 120.473C818.961 119.793 818.827 119.18 818.561 118.633C818.294 118.08 817.917 117.643 817.431 117.323C816.951 116.996 816.384 116.833 815.731 116.833C815.071 116.833 814.471 116.996 813.931 117.323C813.391 117.65 812.961 118.09 812.641 118.643C812.327 119.19 812.171 119.8 812.171 120.473C812.171 121.146 812.334 121.76 812.661 122.313C812.987 122.86 813.421 123.296 813.961 123.623C814.501 123.943 815.091 124.103 815.731 124.103ZM831.609 119.253V125.473H829.929V119.623C829.929 119.116 829.806 118.656 829.559 118.243C829.313 117.83 828.983 117.503 828.569 117.263C828.156 117.016 827.696 116.893 827.189 116.893C826.689 116.893 826.229 117.016 825.809 117.263C825.396 117.503 825.066 117.83 824.819 118.243C824.573 118.656 824.449 119.116 824.449 119.623V125.473H822.769V115.473H824.449V116.723C824.803 116.256 825.249 115.886 825.789 115.613C826.329 115.333 826.916 115.193 827.549 115.193C828.296 115.193 828.976 115.376 829.589 115.743C830.209 116.103 830.699 116.59 831.059 117.203C831.426 117.816 831.609 118.5 831.609 119.253ZM840.304 122.833L841.804 123.643C841.351 124.276 840.774 124.783 840.074 125.163C839.381 125.543 838.627 125.733 837.814 125.733C836.894 125.733 836.054 125.496 835.294 125.023C834.541 124.55 833.937 123.916 833.484 123.123C833.037 122.323 832.814 121.44 832.814 120.473C832.814 119.74 832.944 119.056 833.204 118.423C833.464 117.783 833.821 117.223 834.274 116.743C834.734 116.256 835.267 115.876 835.874 115.603C836.481 115.33 837.127 115.193 837.814 115.193C838.627 115.193 839.381 115.383 840.074 115.763C840.774 116.143 841.351 116.653 841.804 117.293L840.304 118.103C839.984 117.71 839.604 117.406 839.164 117.193C838.724 116.98 838.274 116.873 837.814 116.873C837.194 116.873 836.631 117.04 836.124 117.373C835.624 117.7 835.227 118.136 834.934 118.683C834.641 119.23 834.494 119.826 834.494 120.473C834.494 121.12 834.641 121.716 834.934 122.263C835.234 122.803 835.634 123.236 836.134 123.563C836.641 123.89 837.201 124.053 837.814 124.053C838.307 124.053 838.771 123.94 839.204 123.713C839.637 123.486 840.004 123.193 840.304 122.833ZM847.833 125.733C846.913 125.733 846.073 125.496 845.313 125.023C844.56 124.55 843.957 123.916 843.503 123.123C843.057 122.323 842.833 121.44 842.833 120.473C842.833 119.74 842.963 119.056 843.223 118.423C843.483 117.783 843.84 117.223 844.293 116.743C844.753 116.256 845.287 115.876 845.893 115.603C846.5 115.33 847.147 115.193 847.833 115.193C848.587 115.193 849.277 115.346 849.903 115.653C850.537 115.953 851.077 116.373 851.523 116.913C851.977 117.453 852.313 118.08 852.533 118.793C852.76 119.506 852.843 120.27 852.783 121.083H844.623C844.703 121.65 844.89 122.156 845.183 122.603C845.477 123.043 845.85 123.393 846.303 123.653C846.763 123.913 847.273 124.046 847.833 124.053C848.433 124.053 848.977 123.9 849.463 123.593C849.95 123.28 850.343 122.853 850.643 122.313L852.353 122.713C851.953 123.6 851.35 124.326 850.543 124.893C849.737 125.453 848.833 125.733 847.833 125.733ZM844.573 119.763H851.093C851.04 119.203 850.86 118.693 850.553 118.233C850.247 117.766 849.857 117.393 849.383 117.113C848.91 116.833 848.393 116.693 847.833 116.693C847.273 116.693 846.76 116.83 846.293 117.103C845.827 117.376 845.44 117.746 845.133 118.213C844.833 118.673 844.647 119.19 844.573 119.763ZM862.27 126.593C861.59 125.946 861.04 125.226 860.62 124.433C860.2 123.64 859.893 122.79 859.7 121.883C859.507 120.97 859.41 120.02 859.41 119.033C859.41 118.513 859.45 117.96 859.53 117.373C859.61 116.78 859.73 116.19 859.89 115.603C860.05 115.01 860.243 114.446 860.47 113.913C860.703 113.38 860.97 112.903 861.27 112.483C861.57 112.056 861.903 111.72 862.27 111.473H863.95C863.623 111.766 863.32 112.126 863.04 112.553C862.76 112.973 862.503 113.443 862.27 113.963C862.037 114.476 861.833 115.02 861.66 115.593C861.487 116.166 861.35 116.746 861.25 117.333C861.157 117.913 861.103 118.48 861.09 119.033C861.11 120.08 861.243 121.066 861.49 121.993C861.743 122.92 862.08 123.77 862.5 124.543C862.927 125.316 863.41 126 863.95 126.593H862.27ZM869.908 124.473V120.313H865.748V118.633H869.908V114.473H871.588V118.633H875.748V120.313H871.588V124.473H869.908ZM878.92 125.473V113.153H877.35L877.82 111.473H880.6V125.473H878.92ZM887.544 125.733C886.678 125.733 885.891 125.523 885.184 125.103C884.478 124.683 883.918 124.123 883.504 123.423C883.098 122.716 882.894 121.94 882.894 121.093H884.574C884.574 121.633 884.708 122.13 884.974 122.583C885.241 123.03 885.598 123.386 886.044 123.653C886.498 123.92 886.998 124.053 887.544 124.053C888.084 124.053 888.578 123.92 889.024 123.653C889.471 123.386 889.828 123.03 890.094 122.583C890.361 122.13 890.494 121.633 890.494 121.093C890.494 120.553 890.368 120.056 890.114 119.603C889.868 119.15 889.504 118.79 889.024 118.523C888.544 118.25 887.961 118.113 887.274 118.113H883.824L885.184 111.473H891.824V113.153H886.544L885.894 116.433L887.344 116.443C888.298 116.463 889.134 116.676 889.854 117.083C890.581 117.483 891.148 118.03 891.554 118.723C891.968 119.41 892.174 120.2 892.174 121.093C892.174 121.726 892.054 122.326 891.814 122.893C891.574 123.453 891.241 123.946 890.814 124.373C890.388 124.8 889.894 125.133 889.334 125.373C888.781 125.613 888.184 125.733 887.544 125.733ZM894.366 126.593C894.906 126 895.386 125.316 895.806 124.543C896.226 123.77 896.563 122.92 896.816 121.993C897.07 121.066 897.206 120.08 897.226 119.033C897.213 118.48 897.156 117.913 897.056 117.333C896.963 116.746 896.83 116.166 896.656 115.593C896.483 115.02 896.28 114.476 896.046 113.963C895.813 113.443 895.556 112.973 895.276 112.553C894.996 112.126 894.693 111.766 894.366 111.473H896.046C896.413 111.72 896.743 112.056 897.036 112.483C897.336 112.903 897.603 113.38 897.836 113.913C898.07 114.446 898.266 115.01 898.426 115.603C898.586 116.19 898.706 116.78 898.786 117.373C898.866 117.96 898.906 118.513 898.906 119.033C898.906 120.02 898.81 120.97 898.616 121.883C898.423 122.79 898.116 123.64 897.696 124.433C897.276 125.226 896.726 125.946 896.046 126.593H894.366Z" fill="white"/>
<g filter="url(#filter4_d_292_10658)">
<path d="M992.026 94.7251C992.083 94.4192 992.245 94.143 992.485 93.9442C992.724 93.7454 993.025 93.6366 993.337 93.6366C993.648 93.6366 993.949 93.7454 994.188 93.9442C994.428 94.143 994.59 94.4192 994.647 94.7251L996.049 102.136C996.148 102.663 996.404 103.147 996.783 103.526C997.162 103.906 997.647 104.162 998.174 104.261L1005.58 105.662C1005.89 105.72 1006.17 105.882 1006.37 106.121C1006.56 106.361 1006.67 106.662 1006.67 106.973C1006.67 107.284 1006.56 107.586 1006.37 107.825C1006.17 108.064 1005.89 108.227 1005.58 108.284L998.174 109.685C997.647 109.785 997.162 110.041 996.783 110.42C996.404 110.799 996.148 111.284 996.049 111.81L994.647 119.221C994.59 119.527 994.428 119.803 994.188 120.002C993.949 120.201 993.648 120.31 993.337 120.31C993.025 120.31 992.724 120.201 992.485 120.002C992.245 119.803 992.083 119.527 992.026 119.221L990.625 111.81C990.525 111.284 990.269 110.799 989.89 110.42C989.511 110.041 989.026 109.785 988.499 109.685L981.089 108.284C980.783 108.227 980.506 108.064 980.308 107.825C980.109 107.586 980 107.284 980 106.973C980 106.662 980.109 106.361 980.308 106.121C980.506 105.882 980.783 105.72 981.089 105.662L988.499 104.261C989.026 104.162 989.511 103.906 989.89 103.526C990.269 103.147 990.525 102.663 990.625 102.136L992.026 94.7251Z" stroke="#EC4899" stroke-width="1.80431" stroke-linecap="round" stroke-linejoin="round"/>
<path d="M1004 93.6397V98.9731" stroke="#EC4899" stroke-width="1.80431" stroke-linecap="round" stroke-linejoin="round"/>
<path d="M1006.67 96.3064H1001.34" stroke="#EC4899" stroke-width="1.80431" stroke-linecap="round" stroke-linejoin="round"/>
<path d="M982.67 120.306C984.142 120.306 985.336 119.112 985.336 117.64C985.336 116.167 984.142 114.973 982.67 114.973C981.197 114.973 980.003 116.167 980.003 117.64C980.003 119.112 981.197 120.306 982.67 120.306Z" stroke="#EC4899" stroke-width="1.80431" stroke-linecap="round" stroke-linejoin="round"/>
</g>
<path opacity="0.8" d="M1040.01 80.8367V92.4731H1038.39L1032.48 83.939H1032.37V92.4731H1030.62V80.8367H1032.24L1038.16 89.3822H1038.27V80.8367H1040.01ZM1046.19 92.6492C1045.33 92.6492 1044.59 92.4655 1043.97 92.0981C1043.35 91.7269 1042.88 91.206 1042.54 90.5356C1042.21 89.8613 1042.04 89.0716 1042.04 88.1662C1042.04 87.2723 1042.21 86.4844 1042.54 85.8026C1042.88 85.1208 1043.35 84.5886 1043.95 84.206C1044.56 83.8234 1045.26 83.6322 1046.07 83.6322C1046.57 83.6322 1047.04 83.7136 1047.51 83.8765C1047.97 84.0394 1048.38 84.295 1048.75 84.6435C1049.12 84.992 1049.41 85.4447 1049.62 86.0015C1049.83 86.5545 1049.94 87.2269 1049.94 88.0185V88.6208H1043V87.3481H1048.27C1048.27 86.9011 1048.18 86.5053 1048 86.1606C1047.82 85.8121 1047.56 85.5375 1047.23 85.3367C1046.91 85.1359 1046.52 85.0356 1046.09 85.0356C1045.61 85.0356 1045.19 85.153 1044.84 85.3878C1044.48 85.6189 1044.21 85.9219 1044.02 86.2969C1043.83 86.6681 1043.73 87.0716 1043.73 87.5072V88.5015C1043.73 89.0848 1043.84 89.581 1044.04 89.9901C1044.25 90.3992 1044.54 90.7117 1044.91 90.9276C1045.28 91.1397 1045.71 91.2458 1046.21 91.2458C1046.53 91.2458 1046.83 91.2003 1047.09 91.1094C1047.36 91.0147 1047.59 90.8746 1047.78 90.689C1047.97 90.5034 1048.12 90.2742 1048.22 90.0015L1049.83 90.2912C1049.7 90.7647 1049.47 91.1795 1049.14 91.5356C1048.81 91.8878 1048.39 92.1625 1047.89 92.3594C1047.4 92.5526 1046.83 92.6492 1046.19 92.6492ZM1053.7 92.4731L1051.13 83.7458H1052.89L1054.6 90.1549H1054.68L1056.4 83.7458H1058.15L1059.86 90.1265H1059.94L1061.64 83.7458H1063.4L1060.84 92.4731H1059.1L1057.33 86.1719H1057.2L1055.43 92.4731H1053.7ZM1068.81 82.3481V80.8367H1077.81V82.3481H1074.18V92.4731H1072.43V82.3481H1068.81ZM1081.37 87.2912V92.4731H1079.67V80.8367H1081.34V85.1662H1081.45C1081.66 84.6966 1081.97 84.3234 1082.39 84.0469C1082.81 83.7704 1083.36 83.6322 1084.04 83.6322C1084.63 83.6322 1085.16 83.7553 1085.6 84.0015C1086.05 84.2477 1086.4 84.6151 1086.65 85.1037C1086.9 85.5886 1087.02 86.1947 1087.02 86.9219V92.4731H1085.33V87.1265C1085.33 86.4863 1085.16 85.9901 1084.83 85.6378C1084.5 85.2818 1084.04 85.1037 1083.46 85.1037C1083.05 85.1037 1082.69 85.189 1082.38 85.3594C1082.06 85.5299 1081.81 85.7799 1081.63 86.1094C1081.45 86.4352 1081.37 86.8291 1081.37 87.2912ZM1089.29 92.4731V83.7458H1090.99V92.4731H1089.29ZM1090.15 82.3992C1089.85 82.3992 1089.6 82.3007 1089.39 82.1037C1089.18 81.903 1089.08 81.6644 1089.08 81.3878C1089.08 81.1075 1089.18 80.8689 1089.39 80.6719C1089.6 80.4712 1089.85 80.3708 1090.15 80.3708C1090.44 80.3708 1090.7 80.4712 1090.91 80.6719C1091.12 80.8689 1091.22 81.1075 1091.22 81.3878C1091.22 81.6644 1091.12 81.903 1090.91 82.1037C1090.7 82.3007 1090.44 82.3992 1090.15 82.3992ZM1099.82 85.8765L1098.28 86.1492C1098.21 85.9522 1098.11 85.7647 1097.97 85.5867C1097.83 85.4087 1097.65 85.2628 1097.41 85.1492C1097.18 85.0356 1096.88 84.9787 1096.53 84.9787C1096.05 84.9787 1095.65 85.0867 1095.33 85.3026C1095.01 85.5147 1094.84 85.7894 1094.84 86.1265C1094.84 86.4181 1094.95 86.653 1095.17 86.831C1095.38 87.0091 1095.73 87.1549 1096.21 87.2685L1097.6 87.5867C1098.4 87.7723 1099 88.0583 1099.4 88.4447C1099.79 88.831 1099.99 89.3329 1099.99 89.9503C1099.99 90.4731 1099.83 90.939 1099.53 91.3481C1099.23 91.7534 1098.81 92.0716 1098.28 92.3026C1097.74 92.5337 1097.12 92.6492 1096.42 92.6492C1095.44 92.6492 1094.64 92.4409 1094.03 92.0242C1093.41 91.6038 1093.03 91.0072 1092.89 90.2344L1094.53 89.9844C1094.63 90.4125 1094.84 90.7363 1095.16 90.956C1095.48 91.1719 1095.9 91.2799 1096.41 91.2799C1096.96 91.2799 1097.41 91.1644 1097.74 90.9333C1098.08 90.6984 1098.24 90.4125 1098.24 90.0753C1098.24 89.8026 1098.14 89.5734 1097.93 89.3878C1097.73 89.2022 1097.43 89.0621 1097.01 88.9674L1095.53 88.6435C1094.72 88.4579 1094.11 88.1625 1093.72 87.7572C1093.34 87.3519 1093.15 86.8386 1093.15 86.2174C1093.15 85.7022 1093.29 85.2515 1093.58 84.8651C1093.86 84.4787 1094.26 84.1776 1094.77 83.9617C1095.28 83.742 1095.86 83.6322 1096.51 83.6322C1097.46 83.6322 1098.2 83.8367 1098.74 84.2458C1099.28 84.6511 1099.64 85.1947 1099.82 85.8765ZM1108.5 92.4731L1105.28 80.8367H1107.12L1109.39 89.8481H1109.5L1111.86 80.8367H1113.68L1116.04 89.8537H1116.15L1118.41 80.8367H1120.26L1117.03 92.4731H1115.26L1112.82 83.7572H1112.72L1110.28 92.4731H1108.5ZM1124.63 92.6492C1123.77 92.6492 1123.03 92.4655 1122.41 92.0981C1121.79 91.7269 1121.31 91.206 1120.98 90.5356C1120.64 89.8613 1120.48 89.0716 1120.48 88.1662C1120.48 87.2723 1120.64 86.4844 1120.98 85.8026C1121.31 85.1208 1121.78 84.5886 1122.39 84.206C1122.99 83.8234 1123.7 83.6322 1124.51 83.6322C1125 83.6322 1125.48 83.7136 1125.94 83.8765C1126.41 84.0394 1126.82 84.295 1127.19 84.6435C1127.56 84.992 1127.84 85.4447 1128.06 86.0015C1128.27 86.5545 1128.38 87.2269 1128.38 88.0185V88.6208H1121.44V87.3481H1126.71C1126.71 86.9011 1126.62 86.5053 1126.44 86.1606C1126.26 85.8121 1126 85.5375 1125.67 85.3367C1125.34 85.1359 1124.96 85.0356 1124.52 85.0356C1124.05 85.0356 1123.63 85.153 1123.27 85.3878C1122.92 85.6189 1122.65 85.9219 1122.45 86.2969C1122.27 86.6681 1122.17 87.0716 1122.17 87.5072V88.5015C1122.17 89.0848 1122.27 89.581 1122.48 89.9901C1122.69 90.3992 1122.98 90.7117 1123.35 90.9276C1123.72 91.1397 1124.15 91.2458 1124.65 91.2458C1124.97 91.2458 1125.26 91.2003 1125.53 91.1094C1125.79 91.0147 1126.02 90.8746 1126.22 90.689C1126.41 90.5034 1126.56 90.2742 1126.66 90.0015L1128.27 90.2912C1128.14 90.7647 1127.91 91.1795 1127.57 91.5356C1127.24 91.8878 1126.83 92.1625 1126.33 92.3594C1125.83 92.5526 1125.27 92.6492 1124.63 92.6492ZM1134.02 92.6492C1133.16 92.6492 1132.42 92.4655 1131.8 92.0981C1131.18 91.7269 1130.71 91.206 1130.37 90.5356C1130.03 89.8613 1129.87 89.0716 1129.87 88.1662C1129.87 87.2723 1130.03 86.4844 1130.37 85.8026C1130.71 85.1208 1131.17 84.5886 1131.78 84.206C1132.38 83.8234 1133.09 83.6322 1133.9 83.6322C1134.39 83.6322 1134.87 83.7136 1135.33 83.8765C1135.8 84.0394 1136.21 84.295 1136.58 84.6435C1136.95 84.992 1137.24 85.4447 1137.45 86.0015C1137.66 86.5545 1137.77 87.2269 1137.77 88.0185V88.6208H1130.83V87.3481H1136.1C1136.1 86.9011 1136.01 86.5053 1135.83 86.1606C1135.65 85.8121 1135.39 85.5375 1135.06 85.3367C1134.74 85.1359 1134.35 85.0356 1133.91 85.0356C1133.44 85.0356 1133.02 85.153 1132.66 85.3878C1132.31 85.6189 1132.04 85.9219 1131.85 86.2969C1131.66 86.6681 1131.56 87.0716 1131.56 87.5072V88.5015C1131.56 89.0848 1131.66 89.581 1131.87 89.9901C1132.08 90.3992 1132.37 90.7117 1132.74 90.9276C1133.11 91.1397 1133.54 91.2458 1134.04 91.2458C1134.36 91.2458 1134.65 91.2003 1134.92 91.1094C1135.18 91.0147 1135.41 90.8746 1135.61 90.689C1135.8 90.5034 1135.95 90.2742 1136.05 90.0015L1137.66 90.2912C1137.53 90.7647 1137.3 91.1795 1136.96 91.5356C1136.64 91.8878 1136.22 92.1625 1135.72 92.3594C1135.22 92.5526 1134.66 92.6492 1134.02 92.6492ZM1141.21 89.5128L1141.2 87.439H1141.5L1144.97 83.7458H1147.01L1143.04 87.9503H1142.78L1141.21 89.5128ZM1139.65 92.4731V80.8367H1141.35V92.4731H1139.65ZM1145.16 92.4731L1142.04 88.3253L1143.21 87.1378L1147.25 92.4731H1145.16Z" fill="white"/>
<path d="M1030.82 128.473V126.258C1031.59 125.574 1032.44 124.811 1033.4 123.969C1034.35 123.117 1035.29 122.23 1036.24 121.308C1037.19 120.377 1038.06 119.455 1038.85 118.543C1039.64 117.632 1040.28 116.769 1040.77 115.957C1041.25 115.134 1041.5 114.416 1041.5 113.801C1041.5 113.068 1041.32 112.399 1040.96 111.795C1040.61 111.18 1040.12 110.69 1039.52 110.323C1038.93 109.956 1038.26 109.773 1037.53 109.773C1036.8 109.773 1036.12 109.956 1035.51 110.323C1034.9 110.69 1034.42 111.18 1034.05 111.795C1033.69 112.399 1033.51 113.068 1033.51 113.801H1031.02C1031.02 112.583 1031.31 111.483 1031.91 110.501C1032.5 109.51 1033.29 108.728 1034.27 108.153C1035.25 107.568 1036.34 107.276 1037.53 107.276C1038.72 107.276 1039.8 107.568 1040.77 108.153C1041.75 108.737 1042.53 109.525 1043.12 110.516C1043.7 111.497 1043.99 112.592 1043.99 113.801C1043.99 114.495 1043.83 115.243 1043.49 116.046C1043.15 116.839 1042.69 117.656 1042.11 118.499C1041.52 119.341 1040.86 120.193 1040.11 121.056C1039.37 121.908 1038.59 122.75 1037.77 123.583C1036.94 124.415 1036.13 125.213 1035.31 125.976H1044.26V128.473H1030.82Z" fill="white"/>
</g>
<defs>
<filter id="filter0_d_292_10658" x="0" y="0" width="1286" height="213.946" filterUnits="userSpaceOnUse" color-interpolation-filters="sRGB">
<feFlood flood-opacity="0" result="BackgroundImageFix"/>
<feColorMatrix in="SourceAlpha" type="matrix" values="0 0 0 0 0 0 0 0 0 0 0 0 0 0 0 0 0 0 127 0" result="hardAlpha"/>
<feOffset/>
<feGaussianBlur stdDeviation="20"/>
<feComposite in2="hardAlpha" operator="out"/>
<feColorMatrix type="matrix" values="0 0 0 0 0.658824 0 0 0 0 0.333333 0 0 0 0 0.968627 0 0 0 0.2 0"/>
<feBlend mode="normal" in2="BackgroundImageFix" result="effect1_dropShadow_292_10658"/>
<feBlend mode="normal" in="SourceGraphic" in2="effect1_dropShadow_292_10658" result="shape"/>
</filter>
<filter id="filter1_d_292_10658" x="71.8005" y="68.7911" width="76.3639" height="76.3639" filterUnits="userSpaceOnUse" color-interpolation-filters="sRGB">
<feFlood flood-opacity="0" result="BackgroundImageFix"/>
<feColorMatrix in="SourceAlpha" type="matrix" values="0 0 0 0 0 0 0 0 0 0 0 0 0 0 0 0 0 0 127 0" result="hardAlpha"/>
<feOffset/>
<feGaussianBlur stdDeviation="11.091"/>
<feColorMatrix type="matrix" values="0 0 0 0 0.921569 0 0 0 0 0.282353 0 0 0 0 0.615686 0 0 0 0.804 0"/>
<feBlend mode="normal" in2="BackgroundImageFix" result="effect1_dropShadow_292_10658"/>
<feBlend mode="normal" in="SourceGraphic" in2="effect1_dropShadow_292_10658" result="shape"/>
</filter>
<filter id="filter2_d_292_10658" x="348.446" y="68.7911" width="76.3639" height="76.3639" filterUnits="userSpaceOnUse" color-interpolation-filters="sRGB">
<feFlood flood-opacity="0" result="BackgroundImageFix"/>
<feColorMatrix in="SourceAlpha" type="matrix" values="0 0 0 0 0 0 0 0 0 0 0 0 0 0 0 0 0 0 127 0" result="hardAlpha"/>
<feOffset/>
<feGaussianBlur stdDeviation="11.091"/>
<feColorMatrix type="matrix" values="0 0 0 0 0.921569 0 0 0 0 0.282353 0 0 0 0 0.615686 0 0 0 0.804 0"/>
<feBlend mode="normal" in2="BackgroundImageFix" result="effect1_dropShadow_292_10658"/>
<feBlend mode="normal" in="SourceGraphic" in2="effect1_dropShadow_292_10658" result="shape"/>
</filter>
<filter id="filter3_d_292_10658" x="625.091" y="68.7911" width="76.3639" height="76.3639" filterUnits="userSpaceOnUse" color-interpolation-filters="sRGB">
<feFlood flood-opacity="0" result="BackgroundImageFix"/>
<feColorMatrix in="SourceAlpha" type="matrix" values="0 0 0 0 0 0 0 0 0 0 0 0 0 0 0 0 0 0 127 0" result="hardAlpha"/>
<feOffset/>
<feGaussianBlur stdDeviation="11.091"/>
<feColorMatrix type="matrix" values="0 0 0 0 0.921569 0 0 0 0 0.282353 0 0 0 0 0.615686 0 0 0 0.804 0"/>
<feBlend mode="normal" in2="BackgroundImageFix" result="effect1_dropShadow_292_10658"/>
<feBlend mode="normal" in="SourceGraphic" in2="effect1_dropShadow_292_10658" result="shape"/>
</filter>
<filter id="filter4_d_292_10658" x="955.155" y="68.7911" width="76.3639" height="76.3639" filterUnits="userSpaceOnUse" color-interpolation-filters="sRGB">
<feFlood flood-opacity="0" result="BackgroundImageFix"/>
<feColorMatrix in="SourceAlpha" type="matrix" values="0 0 0 0 0 0 0 0 0 0 0 0 0 0 0 0 0 0 127 0" result="hardAlpha"/>
<feOffset/>
<feGaussianBlur stdDeviation="11.091"/>
<feColorMatrix type="matrix" values="0 0 0 0 0.921569 0 0 0 0 0.282353 0 0 0 0 0.615686 0 0 0 0.804 0"/>
<feBlend mode="normal" in2="BackgroundImageFix" result="effect1_dropShadow_292_10658"/>
<feBlend mode="normal" in="SourceGraphic" in2="effect1_dropShadow_292_10658" result="shape"/>
</filter>
<linearGradient id="paint0_linear_292_10658" x1="40" y1="40" x2="69.3913" y2="304.628" gradientUnits="userSpaceOnUse">
<stop stop-opacity="0"/>
<stop offset="0.5" stop-color="#A855F7" stop-opacity="0.3"/>
<stop offset="1" stop-opacity="0"/>
</linearGradient>
</defs>
</svg>
