<svg width="32" height="32" viewBox="0 0 32 32" fill="none" xmlns="http://www.w3.org/2000/svg">
<path d="M15.414 4.35489C15.4715 4.25037 15.5561 4.1632 15.6588 4.1025C15.7615 4.04179 15.8786 4.00977 15.998 4.00977C16.1173 4.00977 16.2344 4.04179 16.3371 4.1025C16.4399 4.1632 16.5244 4.25037 16.582 4.35489L20.518 11.8269C20.6118 11.9999 20.7428 12.15 20.9016 12.2664C21.0603 12.3828 21.2429 12.4626 21.4361 12.5C21.6293 12.5375 21.8285 12.5317 22.0192 12.4831C22.21 12.4345 22.3876 12.3443 22.5393 12.2189L28.242 7.33356C28.3514 7.24452 28.4863 7.19251 28.6272 7.18503C28.7682 7.17754 28.9078 7.21495 29.0261 7.29189C29.1444 7.36882 29.2352 7.4813 29.2855 7.61315C29.3358 7.74499 29.343 7.88939 29.306 8.02556L25.5273 21.6869C25.4502 21.9664 25.284 22.2132 25.054 22.3898C24.8239 22.5664 24.5426 22.6632 24.2526 22.6656H7.74463C7.45441 22.6635 7.17277 22.5669 6.94248 22.3902C6.71219 22.2136 6.54582 21.9667 6.46863 21.6869L2.69129 8.02689C2.65429 7.89072 2.66146 7.74632 2.71175 7.61448C2.76204 7.48264 2.85287 7.37015 2.97116 7.29322C3.08945 7.21629 3.22911 7.17887 3.37001 7.18636C3.51092 7.19385 3.64582 7.24585 3.75529 7.33489L9.45663 12.2202C9.60836 12.3456 9.78597 12.4359 9.97671 12.4845C10.1675 12.5331 10.3666 12.5388 10.5598 12.5014C10.7531 12.4639 10.9356 12.3841 11.0944 12.2677C11.2531 12.1513 11.3841 12.0012 11.478 11.8282L15.414 4.35489Z" stroke="url(#paint0_linear_367_3151)" stroke-width="2.66667" stroke-linecap="round" stroke-linejoin="round"/>
<path d="M6.66797 28H25.3346" stroke="url(#paint1_linear_367_3151)" stroke-width="2.66667" stroke-linecap="round" stroke-linejoin="round"/>
<defs>
<linearGradient id="paint0_linear_367_3151" x1="2.66797" y1="18.0016" x2="35.5045" y2="15.9987" gradientUnits="userSpaceOnUse">
<stop stop-color="#BE0178"/>
<stop offset="1" stop-color="#E830E8"/>
</linearGradient>
<linearGradient id="paint1_linear_367_3151" x1="6.66797" y1="28.75" x2="20.7836" y2="17.5038" gradientUnits="userSpaceOnUse">
<stop stop-color="#BE0178"/>
<stop offset="1" stop-color="#E830E8"/>
</linearGradient>
</defs>
</svg>
