<svg width="32" height="32" viewBox="0 0 32 32" fill="none" xmlns="http://www.w3.org/2000/svg">
<path d="M14.6899 3.75161C14.747 3.44575 14.9094 3.1695 15.1487 2.9707C15.3881 2.77191 15.6894 2.66309 16.0006 2.66309C16.3117 2.66309 16.6131 2.77191 16.8525 2.9707C17.0918 3.1695 17.2541 3.44575 17.3113 3.75161L18.7126 11.1623C18.8121 11.6891 19.0682 12.1738 19.4473 12.5529C19.8264 12.932 20.3111 13.1881 20.8379 13.2876L28.2486 14.6889C28.5544 14.7461 28.8307 14.9084 29.0295 15.1477C29.2283 15.3871 29.3371 15.6885 29.3371 15.9996C29.3371 16.3108 29.2283 16.6121 29.0295 16.8515C28.8307 17.0908 28.5544 17.2531 28.2486 17.3103L20.8379 18.7116C20.3111 18.8111 19.8264 19.0672 19.4473 19.4463C19.0682 19.8255 18.8121 20.3101 18.7126 20.8369L17.3113 28.2476C17.2541 28.5535 17.0918 28.8297 16.8525 29.0285C16.6131 29.2273 16.3117 29.3361 16.0006 29.3361C15.6894 29.3361 15.3881 29.2273 15.1487 29.0285C14.9094 28.8297 14.747 28.5535 14.6899 28.2476L13.2886 20.8369C13.1891 20.3101 12.933 19.8255 12.5539 19.4463C12.1747 19.0672 11.6901 18.8111 11.1633 18.7116L3.75259 17.3103C3.44673 17.2531 3.17048 17.0908 2.97168 16.8515C2.77288 16.6121 2.66406 16.3108 2.66406 15.9996C2.66406 15.6885 2.77288 15.3871 2.97168 15.1477C3.17048 14.9084 3.44673 14.7461 3.75259 14.6889L11.1633 13.2876C11.6901 13.1881 12.1747 12.932 12.5539 12.5529C12.933 12.1738 13.1891 11.6891 13.2886 11.1623L14.6899 3.75161Z" stroke="#EC4899" stroke-width="1.80431" stroke-linecap="round" stroke-linejoin="round"/>
<path d="M26.668 2.66699V8.00033" stroke="#EC4899" stroke-width="1.80431" stroke-linecap="round" stroke-linejoin="round"/>
<path d="M29.3333 5.33301H24" stroke="#EC4899" stroke-width="1.80431" stroke-linecap="round" stroke-linejoin="round"/>
<path d="M5.33464 29.3333C6.80739 29.3333 8.0013 28.1394 8.0013 26.6667C8.0013 25.1939 6.80739 24 5.33464 24C3.86188 24 2.66797 25.1939 2.66797 26.6667C2.66797 28.1394 3.86188 29.3333 5.33464 29.3333Z" stroke="#EC4899" stroke-width="1.80431" stroke-linecap="round" stroke-linejoin="round"/>
</svg>
