<svg width="54" height="54" viewBox="0 0 54 54" fill="none" xmlns="http://www.w3.org/2000/svg">
<path d="M44.9961 29.2491C44.9961 40.4991 37.1211 46.1241 27.7611 49.3866C27.271 49.5527 26.7386 49.5447 26.2536 49.3641C16.8711 46.1241 8.99609 40.4991 8.99609 29.2491V13.4991C8.99609 12.9023 9.23315 12.33 9.6551 11.9081C10.0771 11.4861 10.6494 11.2491 11.2461 11.2491C15.7461 11.2491 21.3711 8.54906 25.2861 5.12906C25.7628 4.72181 26.3691 4.49805 26.9961 4.49805C27.623 4.49805 28.2294 4.72181 28.7061 5.12906C32.6436 8.57156 38.2461 11.2491 42.7461 11.2491C43.3428 11.2491 43.9151 11.4861 44.3371 11.9081C44.759 12.33 44.9961 12.9023 44.9961 13.4991V29.2491Z" stroke="url(#paint0_linear_367_2695)" stroke-width="4.05" stroke-linecap="round" stroke-linejoin="round"/>
<defs>
<linearGradient id="paint0_linear_367_2695" x1="8.99609" y1="38.2537" x2="53.4475" y2="36.7362" gradientUnits="userSpaceOnUse">
<stop stop-color="#BE0178"/>
<stop offset="1" stop-color="#E830E8"/>
</linearGradient>
</defs>
</svg>
