<svg width="160" height="160" viewBox="0 0 160 160" fill="none" xmlns="http://www.w3.org/2000/svg">
<path d="M80 150C118.66 150 150 118.66 150 80C150 41.3401 118.66 10 80 10C41.3401 10 10 41.3401 10 80C10 118.66 41.3401 150 80 150Z" stroke="#334155" stroke-opacity="0.3" stroke-width="4"/>
<path d="M80 150C118.66 150 150 118.66 150 80C150 41.3401 118.66 10 80 10C41.3401 10 10 41.3401 10 80C10 118.66 41.3401 150 80 150Z" stroke="url(#paint0_linear_67_6011)" stroke-width="6" stroke-linecap="round" stroke-dasharray="282.74 282.74"/>
<g filter="url(#filter0_d_67_6011)">
<path d="M67.6705 87.9773C65.3295 87.9773 63.2614 87.5625 61.4659 86.733C59.6818 85.8921 58.2898 84.7387 57.2898 83.2728C56.2898 81.7955 55.7955 80.1137 55.8068 78.2273C55.7955 76.75 56.0852 75.3864 56.6761 74.1364C57.267 72.875 58.0739 71.8239 59.0966 70.983C60.1307 70.1307 61.2841 69.5909 62.5568 69.3637V69.1591C60.8864 68.7273 59.5568 67.7898 58.5682 66.3466C57.5795 64.8921 57.0909 63.2387 57.1023 61.3864C57.0909 59.6137 57.5398 58.0284 58.4489 56.6307C59.358 55.233 60.608 54.1307 62.1989 53.3239C63.8011 52.5171 65.625 52.1137 67.6705 52.1137C69.6932 52.1137 71.5 52.5171 73.0909 53.3239C74.6818 54.1307 75.9318 55.233 76.8409 56.6307C77.7614 58.0284 78.2273 59.6137 78.2386 61.3864C78.2273 63.2387 77.7216 64.8921 76.7216 66.3466C75.733 67.7898 74.4205 68.7273 72.7841 69.1591V69.3637C74.0455 69.5909 75.1818 70.1307 76.1932 70.983C77.2045 71.8239 78.0114 72.875 78.6136 74.1364C79.2159 75.3864 79.5227 76.75 79.5341 78.2273C79.5227 80.1137 79.0114 81.7955 78 83.2728C77 84.7387 75.608 85.8921 73.8239 86.733C72.0511 87.5625 70 87.9773 67.6705 87.9773ZM67.6705 84.2273C69.25 84.2273 70.6136 83.9716 71.7614 83.4603C72.9091 82.9489 73.7955 82.2273 74.4205 81.2955C75.0455 80.3637 75.3636 79.2728 75.375 78.0228C75.3636 76.7046 75.0227 75.5398 74.3523 74.5284C73.6818 73.5171 72.767 72.7216 71.608 72.1421C70.4602 71.5625 69.1477 71.2728 67.6705 71.2728C66.1818 71.2728 64.8523 71.5625 63.6818 72.1421C62.5227 72.7216 61.608 73.5171 60.9375 74.5284C60.2784 75.5398 59.9545 76.7046 59.9659 78.0228C59.9545 79.2728 60.2557 80.3637 60.8693 81.2955C61.4943 82.2273 62.3864 82.9489 63.5455 83.4603C64.7045 83.9716 66.0795 84.2273 67.6705 84.2273ZM67.6705 67.6591C68.9205 67.6591 70.0284 67.4091 70.9943 66.9091C71.9716 66.4091 72.7386 65.7103 73.2955 64.8125C73.8523 63.9148 74.1364 62.8637 74.1477 61.6591C74.1364 60.4773 73.858 59.4489 73.3125 58.5739C72.767 57.6875 72.0114 57.0057 71.0455 56.5284C70.0795 56.0398 68.9545 55.7955 67.6705 55.7955C66.3636 55.7955 65.2216 56.0398 64.2443 56.5284C63.267 57.0057 62.5114 57.6875 61.9773 58.5739C61.4432 59.4489 61.1818 60.4773 61.1932 61.6591C61.1818 62.8637 61.4489 63.9148 61.9943 64.8125C62.5511 65.7103 63.3182 66.4091 64.2955 66.9091C65.2727 67.4091 66.3977 67.6591 67.6705 67.6591ZM85.2183 87.5V84.4318L96.7411 71.8182C98.0933 70.3409 99.207 69.0568 100.082 67.9659C100.957 66.8637 101.605 65.8296 102.025 64.8637C102.457 63.8864 102.673 62.8637 102.673 61.7955C102.673 60.5682 102.377 59.5057 101.787 58.608C101.207 57.7103 100.412 57.0171 99.4001 56.5284C98.3888 56.0398 97.2524 55.7955 95.9911 55.7955C94.6501 55.7955 93.4797 56.0739 92.4797 56.6307C91.4911 57.1762 90.724 57.9432 90.1786 58.9318C89.6445 59.9205 89.3774 61.0796 89.3774 62.4091H85.3547C85.3547 60.3637 85.8263 58.5682 86.7695 57.0228C87.7126 55.4773 88.9967 54.2728 90.6217 53.4091C92.2581 52.5455 94.0933 52.1137 96.1274 52.1137C98.1729 52.1137 99.9854 52.5455 101.565 53.4091C103.144 54.2728 104.383 55.4375 105.281 56.9034C106.179 58.3693 106.627 60 106.627 61.7955C106.627 63.0796 106.394 64.3353 105.929 65.5625C105.474 66.7784 104.679 68.1364 103.542 69.6364C102.417 71.125 100.855 72.9432 98.8547 75.0909L91.0138 83.4773V83.75H107.241V87.5H85.2183Z" fill="url(#paint1_linear_67_6011)"/>
<path d="M67.6705 87.9773C65.3295 87.9773 63.2614 87.5625 61.4659 86.733C59.6818 85.8921 58.2898 84.7387 57.2898 83.2728C56.2898 81.7955 55.7955 80.1137 55.8068 78.2273C55.7955 76.75 56.0852 75.3864 56.6761 74.1364C57.267 72.875 58.0739 71.8239 59.0966 70.983C60.1307 70.1307 61.2841 69.5909 62.5568 69.3637V69.1591C60.8864 68.7273 59.5568 67.7898 58.5682 66.3466C57.5795 64.8921 57.0909 63.2387 57.1023 61.3864C57.0909 59.6137 57.5398 58.0284 58.4489 56.6307C59.358 55.233 60.608 54.1307 62.1989 53.3239C63.8011 52.5171 65.625 52.1137 67.6705 52.1137C69.6932 52.1137 71.5 52.5171 73.0909 53.3239C74.6818 54.1307 75.9318 55.233 76.8409 56.6307C77.7614 58.0284 78.2273 59.6137 78.2386 61.3864C78.2273 63.2387 77.7216 64.8921 76.7216 66.3466C75.733 67.7898 74.4205 68.7273 72.7841 69.1591V69.3637C74.0455 69.5909 75.1818 70.1307 76.1932 70.983C77.2045 71.8239 78.0114 72.875 78.6136 74.1364C79.2159 75.3864 79.5227 76.75 79.5341 78.2273C79.5227 80.1137 79.0114 81.7955 78 83.2728C77 84.7387 75.608 85.8921 73.8239 86.733C72.0511 87.5625 70 87.9773 67.6705 87.9773ZM67.6705 84.2273C69.25 84.2273 70.6136 83.9716 71.7614 83.4603C72.9091 82.9489 73.7955 82.2273 74.4205 81.2955C75.0455 80.3637 75.3636 79.2728 75.375 78.0228C75.3636 76.7046 75.0227 75.5398 74.3523 74.5284C73.6818 73.5171 72.767 72.7216 71.608 72.1421C70.4602 71.5625 69.1477 71.2728 67.6705 71.2728C66.1818 71.2728 64.8523 71.5625 63.6818 72.1421C62.5227 72.7216 61.608 73.5171 60.9375 74.5284C60.2784 75.5398 59.9545 76.7046 59.9659 78.0228C59.9545 79.2728 60.2557 80.3637 60.8693 81.2955C61.4943 82.2273 62.3864 82.9489 63.5455 83.4603C64.7045 83.9716 66.0795 84.2273 67.6705 84.2273ZM67.6705 67.6591C68.9205 67.6591 70.0284 67.4091 70.9943 66.9091C71.9716 66.4091 72.7386 65.7103 73.2955 64.8125C73.8523 63.9148 74.1364 62.8637 74.1477 61.6591C74.1364 60.4773 73.858 59.4489 73.3125 58.5739C72.767 57.6875 72.0114 57.0057 71.0455 56.5284C70.0795 56.0398 68.9545 55.7955 67.6705 55.7955C66.3636 55.7955 65.2216 56.0398 64.2443 56.5284C63.267 57.0057 62.5114 57.6875 61.9773 58.5739C61.4432 59.4489 61.1818 60.4773 61.1932 61.6591C61.1818 62.8637 61.4489 63.9148 61.9943 64.8125C62.5511 65.7103 63.3182 66.4091 64.2955 66.9091C65.2727 67.4091 66.3977 67.6591 67.6705 67.6591ZM85.2183 87.5V84.4318L96.7411 71.8182C98.0933 70.3409 99.207 69.0568 100.082 67.9659C100.957 66.8637 101.605 65.8296 102.025 64.8637C102.457 63.8864 102.673 62.8637 102.673 61.7955C102.673 60.5682 102.377 59.5057 101.787 58.608C101.207 57.7103 100.412 57.0171 99.4001 56.5284C98.3888 56.0398 97.2524 55.7955 95.9911 55.7955C94.6501 55.7955 93.4797 56.0739 92.4797 56.6307C91.4911 57.1762 90.724 57.9432 90.1786 58.9318C89.6445 59.9205 89.3774 61.0796 89.3774 62.4091H85.3547C85.3547 60.3637 85.8263 58.5682 86.7695 57.0228C87.7126 55.4773 88.9967 54.2728 90.6217 53.4091C92.2581 52.5455 94.0933 52.1137 96.1274 52.1137C98.1729 52.1137 99.9854 52.5455 101.565 53.4091C103.144 54.2728 104.383 55.4375 105.281 56.9034C106.179 58.3693 106.627 60 106.627 61.7955C106.627 63.0796 106.394 64.3353 105.929 65.5625C105.474 66.7784 104.679 68.1364 103.542 69.6364C102.417 71.125 100.855 72.9432 98.8547 75.0909L91.0138 83.4773V83.75H107.241V87.5H85.2183Z" fill="white"/>
</g>
<path d="M54.131 111V102.273H57.0799C57.7646 102.273 58.3242 102.396 58.7589 102.643C59.1964 102.888 59.5202 103.219 59.7305 103.636C59.9407 104.054 60.0458 104.52 60.0458 105.034C60.0458 105.548 59.9407 106.016 59.7305 106.436C59.5231 106.857 59.2021 107.192 58.7674 107.442C58.3327 107.689 57.7759 107.813 57.0969 107.813H54.9833V106.875H57.0629C57.5316 106.875 57.908 106.794 58.1921 106.632C58.4762 106.47 58.6822 106.251 58.81 105.976C58.9407 105.697 59.006 105.384 59.006 105.034C59.006 104.685 58.9407 104.372 58.81 104.097C58.6822 103.821 58.4748 103.605 58.1879 103.449C57.9009 103.29 57.5202 103.21 57.0458 103.21H55.1879V111H54.131ZM63.2175 102.273V111H62.2119V102.273H63.2175ZM67.5857 111.153C67.1709 111.153 66.7945 111.075 66.4564 110.919C66.1183 110.76 65.8499 110.531 65.651 110.233C65.4521 109.932 65.3527 109.568 65.3527 109.142C65.3527 108.767 65.4266 108.463 65.5743 108.23C65.722 107.994 65.9195 107.81 66.1666 107.676C66.4138 107.543 66.6865 107.443 66.9848 107.378C67.2859 107.31 67.5885 107.256 67.8925 107.216C68.2902 107.165 68.6126 107.126 68.8598 107.101C69.1098 107.072 69.2916 107.026 69.4053 106.96C69.5217 106.895 69.58 106.781 69.58 106.619V106.585C69.58 106.165 69.4649 105.838 69.2348 105.605C69.0075 105.372 68.6624 105.256 68.1993 105.256C67.7192 105.256 67.3428 105.361 67.07 105.571C66.7973 105.781 66.6055 106.006 66.4947 106.244L65.5402 105.903C65.7107 105.506 65.9379 105.196 66.222 104.974C66.5089 104.75 66.8214 104.594 67.1595 104.506C67.5004 104.415 67.8357 104.369 68.1652 104.369C68.3754 104.369 68.6169 104.395 68.8896 104.446C69.1652 104.494 69.4308 104.595 69.6865 104.749C69.945 104.902 70.1595 105.134 70.33 105.443C70.5004 105.753 70.5857 106.168 70.5857 106.688V111H69.58V110.114H69.5288C69.4607 110.256 69.347 110.408 69.1879 110.57C69.0288 110.732 68.8172 110.869 68.553 110.983C68.2888 111.097 67.9663 111.153 67.5857 111.153ZM67.7391 110.25C68.1368 110.25 68.472 110.172 68.7447 110.016C69.0203 109.859 69.2277 109.658 69.3669 109.411C69.5089 109.163 69.58 108.903 69.58 108.631V107.71C69.5374 107.761 69.4436 107.808 69.2987 107.851C69.1567 107.891 68.9919 107.926 68.8044 107.957C68.6197 107.986 68.4393 108.011 68.2632 108.034C68.0899 108.054 67.9493 108.071 67.8413 108.085C67.58 108.119 67.3357 108.175 67.1084 108.251C66.8839 108.325 66.7021 108.438 66.5629 108.588C66.4266 108.736 66.3584 108.938 66.3584 109.193C66.3584 109.543 66.4876 109.807 66.7462 109.986C67.0075 110.162 67.3385 110.25 67.7391 110.25ZM75.8678 104.455V105.307H72.4758V104.455H75.8678ZM73.4644 102.886H74.4701V109.125C74.4701 109.409 74.5113 109.622 74.5937 109.764C74.6789 109.903 74.7869 109.997 74.9175 110.045C75.0511 110.091 75.1917 110.114 75.3394 110.114C75.4502 110.114 75.5411 110.108 75.6121 110.097C75.6832 110.082 75.74 110.071 75.7826 110.063L75.9871 110.966C75.919 110.992 75.8238 111.017 75.7016 111.043C75.5795 111.071 75.4246 111.085 75.2371 111.085C74.9531 111.085 74.6746 111.024 74.4019 110.902C74.132 110.78 73.9076 110.594 73.7286 110.344C73.5525 110.094 73.4644 109.778 73.4644 109.398V102.886ZM77.9806 111V104.455H78.9863V111H77.9806ZM78.492 103.364C78.296 103.364 78.1269 103.297 77.9849 103.163C77.8457 103.03 77.7761 102.869 77.7761 102.682C77.7761 102.494 77.8457 102.334 77.9849 102.2C78.1269 102.067 78.296 102 78.492 102C78.688 102 78.8556 102.067 78.9948 102.2C79.1369 102.334 79.2079 102.494 79.2079 102.682C79.2079 102.869 79.1369 103.03 78.9948 103.163C78.8556 103.297 78.688 103.364 78.492 103.364ZM82.4339 107.063V111H81.4283V104.455H82.3999V105.477H82.4851C82.6385 105.145 82.8714 104.878 83.1839 104.676C83.4964 104.472 83.8999 104.369 84.3942 104.369C84.8374 104.369 85.2251 104.46 85.5575 104.642C85.8899 104.821 86.1484 105.094 86.3331 105.46C86.5178 105.824 86.6101 106.284 86.6101 106.841V111H85.6044V106.909C85.6044 106.395 85.4709 105.994 85.2038 105.707C84.9368 105.418 84.5703 105.273 84.1044 105.273C83.7834 105.273 83.4964 105.342 83.2436 105.482C82.9936 105.621 82.7962 105.824 82.6513 106.091C82.5064 106.358 82.4339 106.682 82.4339 107.063ZM93.1728 108.324V104.455H94.1785V111H93.1728V109.892H93.1046C92.9512 110.224 92.7126 110.507 92.3887 110.74C92.0648 110.97 91.6558 111.085 91.1614 111.085C90.7523 111.085 90.3887 110.996 90.0705 110.817C89.7523 110.635 89.5023 110.362 89.3205 109.999C89.1387 109.632 89.0478 109.17 89.0478 108.614V104.455H90.0535V108.545C90.0535 109.023 90.187 109.403 90.454 109.688C90.7239 109.972 91.0677 110.114 91.4853 110.114C91.7353 110.114 91.9896 110.05 92.2481 109.922C92.5094 109.794 92.7282 109.598 92.9043 109.334C93.0833 109.07 93.1728 108.733 93.1728 108.324ZM96.6205 111V104.455H97.592V105.477H97.6773C97.8136 105.128 98.0338 104.857 98.3378 104.663C98.6418 104.467 99.0068 104.369 99.433 104.369C99.8648 104.369 100.224 104.467 100.511 104.663C100.801 104.857 101.027 105.128 101.189 105.477H101.257C101.424 105.139 101.676 104.871 102.011 104.672C102.346 104.47 102.748 104.369 103.217 104.369C103.802 104.369 104.281 104.553 104.653 104.919C105.025 105.283 105.211 105.849 105.211 106.619V111H104.206V106.619C104.206 106.136 104.074 105.791 103.809 105.584C103.545 105.376 103.234 105.273 102.876 105.273C102.416 105.273 102.059 105.412 101.807 105.69C101.554 105.966 101.427 106.315 101.427 106.739V111H100.405V106.517C100.405 106.145 100.284 105.845 100.042 105.618C99.8009 105.388 99.4898 105.273 99.1091 105.273C98.8477 105.273 98.6034 105.342 98.3761 105.482C98.1517 105.621 97.9699 105.814 97.8307 106.061C97.6943 106.305 97.6261 106.588 97.6261 106.909V111H96.6205Z" fill="#8B5CF6"/>
<defs>
<filter id="filter0_d_67_6011" x="22.875" y="16" width="114.366" height="108" filterUnits="userSpaceOnUse" color-interpolation-filters="sRGB">
<feFlood flood-opacity="0" result="BackgroundImageFix"/>
<feColorMatrix in="SourceAlpha" type="matrix" values="0 0 0 0 0 0 0 0 0 0 0 0 0 0 0 0 0 0 127 0" result="hardAlpha"/>
<feOffset/>
<feGaussianBlur stdDeviation="15"/>
<feColorMatrix type="matrix" values="0 0 0 0 0.92549 0 0 0 0 0.282353 0 0 0 0 0.6 0 0 0 0.6 0"/>
<feBlend mode="normal" in2="BackgroundImageFix" result="effect1_dropShadow_67_6011"/>
<feBlend mode="normal" in="SourceGraphic" in2="effect1_dropShadow_67_6011" result="shape"/>
</filter>
<linearGradient id="paint0_linear_67_6011" x1="10" y1="10" x2="14010" y2="14010" gradientUnits="userSpaceOnUse">
<stop stop-color="#EC4899"/>
<stop offset="0.5" stop-color="#D946EF"/>
<stop offset="1" stop-color="#8B5CF6"/>
</linearGradient>
<linearGradient id="paint1_linear_67_6011" x1="52.875" y1="46.5" x2="100.028" y2="103.477" gradientUnits="userSpaceOnUse">
<stop stop-color="#EC4899"/>
<stop offset="0.5" stop-color="#D946EF"/>
<stop offset="1" stop-color="#8B5CF6"/>
</linearGradient>
</defs>
</svg>
