<svg width="26" height="26" viewBox="0 0 26 26" fill="none" xmlns="http://www.w3.org/2000/svg">
<path d="M12.2947 2.44834C12.3415 2.3539 12.4137 2.2744 12.5032 2.21882C12.5927 2.16324 12.696 2.13379 12.8014 2.13379C12.9068 2.13379 13.0101 2.16324 13.0996 2.21882C13.1891 2.2744 13.2613 2.3539 13.3081 2.44834L15.7721 7.43928C15.9344 7.76777 16.174 8.05198 16.4703 8.26749C16.7667 8.48301 17.1109 8.6234 17.4734 8.67661L22.9838 9.48301C23.0882 9.49814 23.1863 9.54218 23.267 9.61015C23.3477 9.67813 23.4077 9.76733 23.4404 9.86766C23.473 9.96798 23.4769 10.0754 23.4516 10.1779C23.4264 10.2803 23.3729 10.3736 23.2974 10.4473L19.3123 14.3278C19.0495 14.5839 18.8529 14.9001 18.7394 15.249C18.6258 15.598 18.5988 15.9693 18.6606 16.331L19.6014 21.8137C19.6198 21.918 19.6086 22.0255 19.5689 22.1237C19.5292 22.222 19.4627 22.3071 19.3769 22.3694C19.2912 22.4317 19.1896 22.4686 19.0839 22.476C18.9782 22.4833 18.8725 22.4608 18.779 22.411L13.8531 19.8211C13.5286 19.6507 13.1675 19.5617 12.8009 19.5617C12.4343 19.5617 12.0732 19.6507 11.7486 19.8211L6.8238 22.411C6.73029 22.4605 6.62476 22.4828 6.51921 22.4753C6.41367 22.4678 6.31235 22.4308 6.22678 22.3686C6.14121 22.3063 6.07482 22.2213 6.03517 22.1232C5.99551 22.0251 5.98418 21.9179 6.00247 21.8137L6.9422 16.3321C7.00427 15.9702 6.97738 15.5986 6.86384 15.2495C6.7503 14.9003 6.55351 14.584 6.29047 14.3278L2.3054 10.4483C2.22923 10.3748 2.17526 10.2813 2.14963 10.1786C2.12399 10.0758 2.12773 9.96793 2.16042 9.86721C2.1931 9.76649 2.25342 9.67697 2.33449 9.60886C2.41557 9.54074 2.51415 9.49677 2.619 9.48194L8.12833 8.67661C8.49127 8.62381 8.83595 8.4836 9.13269 8.26806C9.42943 8.05252 9.66935 7.7681 9.8318 7.43928L12.2947 2.44834Z" stroke="#EC4899" stroke-width="1.66632" stroke-linecap="round" stroke-linejoin="round"/>
</svg>
