<svg width="32" height="32" viewBox="0 0 32 32" fill="none" xmlns="http://www.w3.org/2000/svg">
<path d="M14.6889 3.75202C14.7461 3.44616 14.9084 3.16991 15.1477 2.97112C15.3871 2.77232 15.6885 2.6635 15.9996 2.6635C16.3108 2.6635 16.6121 2.77232 16.8515 2.97112C17.0908 3.16991 17.2531 3.44616 17.3103 3.75202L18.7116 11.1627C18.8111 11.6896 19.0672 12.1742 19.4463 12.5533C19.8255 12.9325 20.3101 13.1885 20.8369 13.288L28.2476 14.6894C28.5535 14.7465 28.8297 14.9088 29.0285 15.1482C29.2273 15.3875 29.3361 15.6889 29.3361 16C29.3361 16.3112 29.2273 16.6125 29.0285 16.8519C28.8297 17.0913 28.5535 17.2536 28.2476 17.3107L20.8369 18.712C20.3101 18.8115 19.8255 19.0676 19.4463 19.4467C19.0672 19.8259 18.8111 20.3105 18.7116 20.8374L17.3103 28.248C17.2531 28.5539 17.0908 28.8301 16.8515 29.0289C16.6121 29.2277 16.3108 29.3365 15.9996 29.3365C15.6885 29.3365 15.3871 29.2277 15.1477 29.0289C14.9084 28.8301 14.7461 28.5539 14.6889 28.248L13.2876 20.8374C13.1881 20.3105 12.932 19.8259 12.5529 19.4467C12.1738 19.0676 11.6891 18.8115 11.1623 18.712L3.75161 17.3107C3.44575 17.2536 3.1695 17.0913 2.9707 16.8519C2.77191 16.6125 2.66309 16.3112 2.66309 16C2.66309 15.6889 2.77191 15.3875 2.9707 15.1482C3.1695 14.9088 3.44575 14.7465 3.75161 14.6894L11.1623 13.288C11.6891 13.1885 12.1738 12.9325 12.5529 12.5533C12.932 12.1742 13.1881 11.6896 13.2876 11.1627L14.6889 3.75202Z" stroke="#EC4899" stroke-width="1.80431" stroke-linecap="round" stroke-linejoin="round"/>
<path d="M26.667 2.66667V8" stroke="#EC4899" stroke-width="1.80431" stroke-linecap="round" stroke-linejoin="round"/>
<path d="M29.3324 5.3333H23.999" stroke="#EC4899" stroke-width="1.80431" stroke-linecap="round" stroke-linejoin="round"/>
<path d="M5.33268 29.3333C6.80544 29.3333 7.99935 28.1394 7.99935 26.6667C7.99935 25.1939 6.80544 24 5.33268 24C3.85992 24 2.66602 25.1939 2.66602 26.6667C2.66602 28.1394 3.85992 29.3333 5.33268 29.3333Z" stroke="#EC4899" stroke-width="1.80431" stroke-linecap="round" stroke-linejoin="round"/>
</svg>
