<svg width="20" height="20" viewBox="0 0 20 20" fill="none" xmlns="http://www.w3.org/2000/svg">
<path d="M9.99739 18.3327C5.3949 18.3327 1.66406 14.6018 1.66406 9.99935C1.66406 5.39685 5.3949 1.66602 9.99739 1.66602C14.5999 1.66602 18.3307 5.39685 18.3307 9.99935C18.3307 14.6018 14.5999 18.3327 9.99739 18.3327ZM9.99739 16.666C11.7655 16.666 13.4612 15.9636 14.7114 14.7134C15.9617 13.4632 16.6641 11.7675 16.6641 9.99935C16.6641 8.23124 15.9617 6.53555 14.7114 5.2853C13.4612 4.03506 11.7655 3.33268 9.99739 3.33268C8.22928 3.33268 6.53359 4.03506 5.28335 5.2853C4.03311 6.53555 3.33073 8.23124 3.33073 9.99935C3.33073 11.7675 4.03311 13.4632 5.28335 14.7134C6.53359 15.9636 8.22928 16.666 9.99739 16.666ZM10.8307 9.99935H14.1641V11.666H9.16406V5.83268H10.8307V9.99935Z" fill="#450246"/>
</svg>
