<svg width="77" height="77" viewBox="0 0 77 77" fill="none" xmlns="http://www.w3.org/2000/svg">
<g filter="url(#filter0_d_2055_4823)">
<path d="M43.1742 39.6965L45.211 51.1592C45.2339 51.2942 45.2149 51.4329 45.1568 51.5568C45.0986 51.6807 45.004 51.784 44.8856 51.8527C44.7672 51.9214 44.6306 51.9523 44.4942 51.9413C44.3577 51.9303 44.2279 51.8779 44.122 51.7911L39.309 48.1786C39.0766 48.005 38.7943 47.9112 38.5043 47.9112C38.2143 47.9112 37.932 48.005 37.6997 48.1786L32.8785 51.7897C32.7727 51.8764 32.643 51.9287 32.5068 51.9397C32.3705 51.9507 32.2341 51.9199 32.1158 51.8514C31.9974 51.7829 31.9028 51.6799 31.8445 51.5563C31.7862 51.4326 31.767 51.2941 31.7895 51.1592L33.825 39.6965" stroke="#EC4899" stroke-width="1.80431" stroke-linecap="round" stroke-linejoin="round"/>
<path d="M38.4999 41.1888C42.955 41.1888 46.5666 37.5773 46.5666 33.1222C46.5666 28.6671 42.955 25.0556 38.4999 25.0556C34.0449 25.0556 30.4333 28.6671 30.4333 33.1222C30.4333 37.5773 34.0449 41.1888 38.4999 41.1888Z" stroke="#EC4899" stroke-width="1.80431" stroke-linecap="round" stroke-linejoin="round"/>
</g>
<defs>
<filter id="filter0_d_2055_4823" x="-1.15394e-05" y="5.00041e-05" width="76.9999" height="76.9999" filterUnits="userSpaceOnUse" color-interpolation-filters="sRGB">
<feFlood flood-opacity="0" result="BackgroundImageFix"/>
<feColorMatrix in="SourceAlpha" type="matrix" values="0 0 0 0 0 0 0 0 0 0 0 0 0 0 0 0 0 0 127 0" result="hardAlpha"/>
<feOffset/>
<feGaussianBlur stdDeviation="11.091"/>
<feColorMatrix type="matrix" values="0 0 0 0 0.921569 0 0 0 0 0.282353 0 0 0 0 0.615686 0 0 0 0.804 0"/>
<feBlend mode="normal" in2="BackgroundImageFix" result="effect1_dropShadow_2055_4823"/>
<feBlend mode="normal" in="SourceGraphic" in2="effect1_dropShadow_2055_4823" result="shape"/>
</filter>
</defs>
</svg>
