<svg width="77" height="77" viewBox="0 0 77 77" fill="none" xmlns="http://www.w3.org/2000/svg">
<g filter="url(#filter0_d_2055_4839)">
<path d="M37.1779 26.15C37.2355 25.8416 37.3992 25.563 37.6405 25.3626C37.8819 25.1621 38.1857 25.0524 38.4995 25.0524C38.8132 25.0524 39.1171 25.1621 39.3584 25.3626C39.5998 25.563 39.7635 25.8416 39.8211 26.15L41.2341 33.6224C41.3344 34.1536 41.5926 34.6423 41.9749 35.0246C42.3572 35.4069 42.8459 35.665 43.3771 35.7654L50.8495 37.1784C51.1579 37.236 51.4364 37.3997 51.6369 37.641C51.8373 37.8824 51.9471 38.1862 51.9471 38.5C51.9471 38.8137 51.8373 39.1176 51.6369 39.3589C51.4364 39.6003 51.1579 39.764 50.8495 39.8216L43.3771 41.2346C42.8459 41.3349 42.3572 41.5931 41.9749 41.9754C41.5926 42.3577 41.3344 42.8463 41.2341 43.3776L39.8211 50.85C39.7635 51.1584 39.5998 51.4369 39.3584 51.6374C39.1171 51.8378 38.8132 51.9476 38.4995 51.9476C38.1857 51.9476 37.8819 51.8378 37.6405 51.6374C37.3992 51.4369 37.2355 51.1584 37.1779 50.85L35.7649 43.3776C35.6645 42.8463 35.4064 42.3577 35.0241 41.9754C34.6418 41.5931 34.1531 41.3349 33.6219 41.2346L26.1495 39.8216C25.8411 39.764 25.5625 39.6003 25.3621 39.3589C25.1616 39.1176 25.0519 38.8137 25.0519 38.5C25.0519 38.1862 25.1616 37.8824 25.3621 37.641C25.5625 37.3997 25.8411 37.236 26.1495 37.1784L33.6219 35.7654C34.1531 35.665 34.6418 35.4069 35.0241 35.0246C35.4064 34.6423 35.6645 34.1536 35.7649 33.6224L37.1779 26.15Z" stroke="#EC4899" stroke-width="1.80431" stroke-linecap="round" stroke-linejoin="round"/>
<path d="M49.2558 25.0556V30.4333" stroke="#EC4899" stroke-width="1.80431" stroke-linecap="round" stroke-linejoin="round"/>
<path d="M51.9434 27.7444H46.5656" stroke="#EC4899" stroke-width="1.80431" stroke-linecap="round" stroke-linejoin="round"/>
<path d="M27.7438 51.9444C29.2289 51.9444 30.4327 50.7405 30.4327 49.2555C30.4327 47.7705 29.2289 46.5666 27.7438 46.5666C26.2588 46.5666 25.055 47.7705 25.055 49.2555C25.055 50.7405 26.2588 51.9444 27.7438 51.9444Z" stroke="#EC4899" stroke-width="1.80431" stroke-linecap="round" stroke-linejoin="round"/>
</g>
<defs>
<filter id="filter0_d_2055_4839" x="5.00041e-05" y="5.00041e-05" width="76.9999" height="76.9999" filterUnits="userSpaceOnUse" color-interpolation-filters="sRGB">
<feFlood flood-opacity="0" result="BackgroundImageFix"/>
<feColorMatrix in="SourceAlpha" type="matrix" values="0 0 0 0 0 0 0 0 0 0 0 0 0 0 0 0 0 0 127 0" result="hardAlpha"/>
<feOffset/>
<feGaussianBlur stdDeviation="11.091"/>
<feColorMatrix type="matrix" values="0 0 0 0 0.921569 0 0 0 0 0.282353 0 0 0 0 0.615686 0 0 0 0.804 0"/>
<feBlend mode="normal" in2="BackgroundImageFix" result="effect1_dropShadow_2055_4839"/>
<feBlend mode="normal" in="SourceGraphic" in2="effect1_dropShadow_2055_4839" result="shape"/>
</filter>
</defs>
</svg>
