<svg width="322" height="322" viewBox="0 0 322 322" fill="none" xmlns="http://www.w3.org/2000/svg">
<path d="M289.321 70.1631C291.138 68.8827 293.654 69.3155 294.888 71.1641C313.947 99.702 323.409 133.619 321.83 167.97C320.19 203.662 306.723 237.795 283.55 264.993C260.378 292.19 228.816 310.906 193.837 318.194C158.858 325.481 122.448 320.926 90.3427 305.245C58.2371 289.564 32.2599 263.649 16.5024 231.581C0.74495 199.513 -3.89744 163.114 3.30644 128.118C10.5103 93.121 29.1511 61.5151 56.2929 38.2777C82.4144 15.9138 114.981 2.52413 149.206 0.0106908C151.423 -0.152122 153.311 1.566 153.418 3.78635C153.526 6.0067 151.812 7.88821 149.595 8.05394C117.155 10.4792 86.2926 23.1908 61.5283 44.3927C35.7436 66.4682 18.0348 96.4938 11.1911 129.741C4.34744 162.987 8.75771 197.566 23.7273 228.031C38.6969 258.495 63.3753 283.115 93.8755 298.011C124.376 312.908 158.965 317.236 192.195 310.313C225.426 303.39 255.409 285.609 277.423 259.772C299.437 233.935 312.23 201.508 313.789 167.6C315.285 135.034 306.337 102.878 288.306 75.8023C287.074 73.9521 287.504 71.4435 289.321 70.1631Z" fill="url(#paint0_linear_265_4649)"/>
<defs>
<linearGradient id="paint0_linear_265_4649" x1="161" y1="-0.421844" x2="161" y2="321.578" gradientUnits="userSpaceOnUse">
<stop stop-color="#DC0AFA"/>
<stop offset="1" stop-color="#FCF5FA"/>
</linearGradient>
</defs>
</svg>
