<svg width="370" height="370" viewBox="0 0 370 370" fill="none" xmlns="http://www.w3.org/2000/svg">
<g filter="url(#filter0_f_265_4648)">
<path d="M313.321 94.1631C315.138 92.8827 317.654 93.3155 318.888 95.1641C337.947 123.702 347.409 157.619 345.83 191.97C344.19 227.662 330.723 261.795 307.55 288.993C284.378 316.19 252.816 334.906 217.837 342.194C182.858 349.481 146.448 344.926 114.343 329.245C82.2371 313.564 56.2599 287.649 40.5024 255.581C24.7449 223.513 20.1025 187.114 27.3064 152.118C34.5103 117.121 53.1511 85.515 80.2929 62.2776C106.414 39.9138 138.981 26.5241 173.206 24.0107C175.423 23.8479 177.311 25.566 177.418 27.7863C177.526 30.0067 175.812 31.8882 173.595 32.0539C141.155 34.4792 110.293 47.1908 85.5283 68.3927C59.7435 90.4682 42.0348 120.494 35.1911 153.741C28.3474 186.987 32.7577 221.566 47.7273 252.031C62.6969 282.495 87.3752 307.115 117.876 322.011C148.376 336.908 182.965 341.236 216.195 334.313C249.426 327.39 279.409 309.609 301.423 283.772C323.437 257.935 336.23 225.508 337.789 191.6C339.285 159.034 330.337 126.878 312.306 99.8023C311.074 97.9521 311.504 95.4435 313.321 94.1631Z" fill="url(#paint0_linear_265_4648)"/>
</g>
<defs>
<filter id="filter0_f_265_4648" x="0" y="0" width="370" height="369.578" filterUnits="userSpaceOnUse" color-interpolation-filters="sRGB">
<feFlood flood-opacity="0" result="BackgroundImageFix"/>
<feBlend mode="normal" in="SourceGraphic" in2="BackgroundImageFix" result="shape"/>
<feGaussianBlur stdDeviation="12" result="effect1_foregroundBlur_265_4648"/>
</filter>
<linearGradient id="paint0_linear_265_4648" x1="185" y1="23.5781" x2="185" y2="345.578" gradientUnits="userSpaceOnUse">
<stop stop-color="#DE32F6"/>
<stop offset="1" stop-color="#FCF5FA"/>
</linearGradient>
</defs>
</svg>
